<svg width="194" height="121" viewBox="0 0 194 121" fill="none" xmlns="http://www.w3.org/2000/svg">
<path fill-rule="evenodd" clip-rule="evenodd" d="M16.7598 112.685C17.0875 112.657 17.9354 112.598 18.753 113.046L18.916 113.143L19.0987 113.269C19.9722 113.925 20.2676 114.925 20.2237 115.746C20.178 116.598 19.7957 117.335 19.3106 117.882C18.8562 118.394 18.2844 118.78 17.7959 119.027C17.685 119.083 17.5641 119.136 17.4385 119.188C17.4081 119.227 17.3756 119.27 17.3389 119.311C17.2424 119.42 16.6871 120.05 15.6973 120.096C14.4374 120.155 13.7692 119.279 13.5733 118.946C13.3741 118.607 13.3105 118.302 13.292 118.209C13.1646 117.571 13.2241 116.878 13.4629 116.27C13.488 116.206 13.523 116.127 13.5674 116.038C13.5749 116.012 13.5806 115.985 13.5889 115.959C13.6081 115.9 13.6494 115.788 13.7139 115.653C13.713 115.649 13.7108 115.644 13.71 115.64C13.4519 114.378 14.266 113.145 15.5283 112.886C15.8283 112.825 16.3065 112.724 16.7598 112.685ZM79.1983 100.225C80.4872 100.225 81.5323 101.27 81.5323 102.559C81.5322 102.94 81.4403 103.304 81.4151 103.41C81.3717 103.591 81.3127 103.807 81.2578 104.01C81.1833 104.286 81.1 104.605 81.0098 104.969C81.2253 105.404 81.605 105.907 82.2119 106.493C82.6009 106.806 83.0613 107.096 83.6924 107.485C84.7892 108.161 85.1296 109.599 84.4532 110.696C83.7766 111.793 82.3392 112.134 81.2422 111.457C80.6336 111.082 79.8757 110.619 79.1836 110.047L79.1211 109.996L79.0616 109.94C77.92 108.855 76.7841 107.464 76.3203 105.704L76.1758 105.155L76.2989 104.602C76.4677 103.844 76.6354 103.225 76.752 102.793C76.8132 102.567 76.8518 102.425 76.876 102.324C76.8766 102.321 76.8774 102.318 76.878 102.316C76.9996 101.141 77.9915 100.225 79.1983 100.225ZM107.592 98.7846C108.149 97.6227 109.544 97.1326 110.706 97.6898C110.67 97.6726 110.704 97.6901 110.878 97.7514C111.028 97.8042 111.224 97.8696 111.465 97.9477C111.927 98.0975 112.561 98.2975 113.186 98.5053C113.817 98.7155 114.502 98.9545 115.123 99.2045C115.63 99.4086 116.219 99.6677 116.719 99.9799L116.927 100.118L117.101 100.238L117.249 100.387C118.184 101.326 118.624 102.476 118.831 103.443C119.04 104.418 119.032 105.348 119.032 106.015C119.032 107.304 117.987 108.349 116.698 108.349C115.41 108.349 114.364 107.304 114.364 106.015C114.364 105.273 114.356 104.834 114.268 104.42C114.209 104.145 114.127 103.959 114.053 103.833C113.906 103.759 113.686 103.657 113.38 103.534C112.89 103.337 112.311 103.133 111.712 102.934C111.106 102.732 110.542 102.556 110.025 102.388C109.602 102.251 109.04 102.068 108.687 101.899C107.525 101.341 107.035 99.9465 107.592 98.7846ZM127.591 94.6957C130.869 94.6958 134.276 95.4192 136.148 97.9994L136.294 98.2006L136.395 98.4272C137.051 99.9144 137.014 101.529 136.741 102.724C136.587 103.402 136.329 104.061 135.853 104.728C135.411 105.347 134.839 105.891 134.181 106.434C133.186 107.253 131.715 107.112 130.896 106.118C130.076 105.123 130.218 103.652 131.212 102.832C131.739 102.398 131.955 102.154 132.053 102.017C132.116 101.928 132.151 101.861 132.19 101.687C132.242 101.459 132.269 101.193 132.255 100.931C132.247 100.785 132.226 100.656 132.199 100.544C131.602 99.9422 130.242 99.3637 127.591 99.3637C126.302 99.3637 125.257 98.3184 125.257 97.0297C125.257 95.7408 126.302 94.6957 127.591 94.6957ZM43.0196 89.1781C44.1963 89.2977 45.1152 90.2912 45.1153 91.4994C45.1153 92.5771 44.3834 93.481 43.3907 93.7494C43.3257 93.7842 43.2227 93.8431 43.0801 93.933C42.6825 94.1838 42.0919 94.602 41.3291 95.2172C40.826 95.6231 40.3648 96.7384 40.4688 98.266C40.5208 98.2863 40.5796 98.3083 40.6455 98.3305C41.1125 98.4871 41.6934 98.5975 42.3008 98.682C43.4465 98.8414 44.2148 98.8422 45.1241 98.8422C46.4127 98.8424 47.4578 99.8875 47.458 101.176C47.458 102.465 46.4128 103.51 45.1241 103.51C44.175 103.51 43.1388 103.511 41.6573 103.305C40.951 103.207 40.0363 103.049 39.1612 102.755C38.3428 102.481 37.2178 101.979 36.4414 100.978L36.0987 100.537L35.9932 99.9877C35.4747 97.2878 35.85 93.6405 38.3994 91.5844C39.2604 90.8901 39.9997 90.3571 40.5899 89.9848C40.8813 89.8009 41.1692 89.6357 41.4375 89.5072C41.5707 89.4435 41.7331 89.373 41.9102 89.3139C42.0474 89.2681 42.3739 89.1654 42.7813 89.1654L43.0196 89.1781ZM76.875 102.354C76.8709 102.391 76.8643 102.463 76.8643 102.559C76.8643 102.489 76.87 102.42 76.876 102.352L76.875 102.354ZM98.6924 88.8998C99.7465 88.1585 101.202 88.4113 101.943 89.4652C102.119 89.7144 102.236 89.9867 102.303 90.266C102.406 90.4205 102.501 90.6 102.571 90.809C102.788 91.4481 102.687 92.0355 102.522 92.4398C102.262 93.0803 101.792 93.406 101.737 93.4457C101.595 93.5503 101.47 93.6169 101.413 93.6459C101.293 93.7076 101.188 93.7474 101.145 93.7641C101.043 93.8027 100.94 93.8358 100.865 93.8588C99.9047 94.1544 98.5721 94.6237 97.3125 95.0512C96.704 95.2577 96.1093 95.4553 95.625 95.601C95.3852 95.6731 95.1416 95.7418 94.9219 95.7934C94.795 95.8232 94.3812 95.9241 93.9463 95.9037C91.7155 95.7982 89.8484 95.6392 88.4043 95.3647C87.6805 95.227 86.9862 95.0465 86.3721 94.7924C85.7744 94.545 85.094 94.1638 84.5674 93.5346C83.7403 92.5461 83.871 91.0737 84.8594 90.2465C85.8071 89.4538 87.197 89.5438 88.0391 90.4232C88.0616 90.4353 88.0994 90.4559 88.1573 90.4799C88.3689 90.5674 88.7238 90.6738 89.2754 90.7787C90.3435 90.9818 91.8664 91.1252 93.9307 91.2279C94.0148 91.2061 94.131 91.1761 94.2803 91.1313C94.6797 91.0112 95.2075 90.8366 95.8125 90.6313C96.1797 90.5066 96.5768 90.3702 96.9805 90.2318C97.0975 90.0589 97.2349 89.883 97.3985 89.7084C97.3382 89.7123 97.3251 89.715 97.3985 89.7045C97.4155 89.701 97.4459 89.6945 97.4805 89.6801C97.6768 89.5981 98.0182 89.3743 98.6924 88.8998ZM153.01 0.859774C153.823 -0.139394 155.293 -0.289335 156.293 0.523836C157.292 1.33751 157.443 2.80748 156.63 3.80704C154.586 6.3186 152.591 8.75055 145.518 14.9076C143.095 17.0164 140.107 19.5341 137.002 22.1195C139.119 23.5697 141.354 25.2652 143.63 27.1967C149.32 32.026 152.663 35.0534 154.995 37.515C155.834 38.4008 156.504 39.3652 157.063 40.3627C162.007 39.6 167.133 37.9488 171.085 36.7377C176.401 35.1087 178.305 33.9127 179.712 32.8129C181.214 31.6382 182.227 30.4861 183.403 29.1381C184.251 28.1674 185.725 28.068 186.696 28.9154C187.667 29.7631 187.768 31.2375 186.92 32.2084C185.747 33.5522 184.477 35.0131 182.587 36.4906C180.601 38.0429 178.133 39.4598 172.452 41.2006C169.023 42.2514 164.064 43.8703 158.957 44.7758C159.179 45.4084 159.393 46.0466 159.604 46.6713L160.057 48.0004L160.088 48.0883L160.111 48.1791C160.5 49.6653 160.696 51.1928 160.846 52.6137C161.735 53.2483 162.082 54.4432 161.614 55.476C161.49 55.7498 161.104 56.5621 160.193 56.975C159.637 57.2273 159.003 57.2718 158.405 57.0834C157.868 56.9139 157.505 56.6043 157.299 56.3871C156.91 55.9783 156.709 55.5128 156.61 55.2602C156.493 54.9573 156.407 54.6445 156.347 54.3617L156.318 54.2328L156.306 54.101C156.135 52.3748 155.974 50.8445 155.609 49.4232C155.083 47.9105 154.671 46.6057 154.211 45.3734C152.972 45.4566 151.749 45.4743 150.564 45.4057C144.336 45.0454 139.839 44.5321 136.87 44.0561C135.497 43.8359 134.422 43.6166 133.639 43.4184C134.258 43.9949 134.93 44.6217 135.618 45.2641C136.756 46.3251 137.971 47.4466 139.161 48.5131L140.126 47.5482C140.77 48.135 142.653 49.8545 144.158 51.3412C144.885 52.0593 145.622 52.8182 146.068 53.3852C146.184 53.5316 146.323 53.7196 146.444 53.9262C146.505 54.0297 146.587 54.1798 146.659 54.3627C146.672 54.3953 146.686 54.4365 146.702 54.4838C148.459 56.2868 150.302 58.1422 152.085 59.8871C154.145 61.9033 156.107 63.7558 157.747 65.2074C158.581 64.975 159.512 65.2161 160.124 65.9086C160.617 66.4673 161.184 67.1072 161.604 67.6537C161.768 67.8685 161.955 68.1291 162.118 68.4057C164.993 69.5264 167.943 70.0611 171.135 70.394C175.774 70.8777 181.278 69.7127 186.391 67.7611C188.007 66.9022 188.565 66.0692 188.814 65.5717C188.949 65.2997 188.997 65.1129 189.02 64.9672C189.047 64.7907 189.052 64.6149 189.052 64.2406C189.052 62.9518 190.097 61.9066 191.386 61.9066C192.674 61.9068 193.72 62.9519 193.72 64.2406C193.72 65.0385 193.725 66.1861 192.987 67.6606C192.271 69.0919 190.963 70.6547 188.424 71.9672L188.311 72.0258L188.19 72.0717C182.692 74.187 176.349 75.6307 170.65 75.0365C167.564 74.7147 164.516 74.1989 161.467 73.1391L161.433 73.2211L160.587 72.8178C158.781 72.126 156.973 71.2318 155.156 70.0609C151.745 67.8624 148.894 66.1072 146.716 64.9301C145.624 64.3398 144.754 63.9245 144.1 63.6713C143.338 63.3766 143.199 63.4367 143.403 63.4145C142.122 63.554 140.97 62.6284 140.83 61.3471C140.691 60.0658 141.616 58.9135 142.897 58.7738C143.433 58.7156 143.984 58.7851 144.504 58.9086C143.961 58.3565 143.423 57.8068 142.894 57.2621C142.221 56.9301 141.513 56.4647 140.839 55.975C140.347 55.6175 139.828 55.2128 139.293 54.7797C138.999 55.0686 138.649 55.2685 138.296 55.3773C137.787 55.5339 137.345 55.4926 137.116 55.4574C136.654 55.3863 136.24 55.2061 135.972 55.0785C135.411 54.8119 134.612 54.2617 133.811 53.683C133.065 53.1449 132.167 52.4665 131.164 51.6977C131.35 52.0317 131.423 52.3437 131.453 52.5385L131.517 52.9525L131.433 53.3627C131.339 53.8179 131.154 54.3784 130.987 54.8764C130.801 55.4317 130.59 56.0419 130.359 56.7621C130.323 56.8756 130.289 56.9922 130.252 57.1098C130.316 57.2445 130.363 57.369 130.396 57.4731C130.579 58.0678 130.53 58.6318 130.488 58.9408C130.438 59.3136 130.343 59.6895 130.225 60.0414C130.021 60.6496 129.724 61.3443 129.427 61.9057C129.284 62.1745 129.095 62.5024 128.871 62.7895C128.768 62.9217 128.573 63.1561 128.292 63.3676C128.123 63.4947 127.403 64.0111 126.405 63.8412C126.227 64.1084 126.048 64.3756 125.87 64.6322C124.407 66.7488 122.474 69.1876 119.654 71.0346C119.592 71.0757 119.481 71.1438 119.334 71.2104C119.214 71.2648 118.912 71.3932 118.5 71.4174C118.488 71.4181 118.476 71.4169 118.464 71.4174C117.873 71.893 117.271 72.3706 116.68 72.8363C115.234 73.9755 113.865 75.0486 112.777 75.9867C111.802 76.8284 110.327 76.7201 109.485 75.7445C109.439 75.6904 109.395 75.6336 109.355 75.5766C109.335 75.6108 109.316 75.6457 109.295 75.6791C109.228 75.7858 109.092 75.9875 108.874 76.1898C108.683 76.3673 108.183 76.7754 107.403 76.8256C106.491 76.8844 105.83 76.4257 105.482 76.0356C105.183 75.6993 105.051 75.3589 104.999 75.2113C104.888 74.8959 104.857 74.6037 104.845 74.4701C104.828 74.2975 104.821 74.1192 104.819 73.9506C104.816 73.6862 104.81 73.4224 104.807 73.1606C104.777 73.2428 104.749 73.3204 104.72 73.3891C104.7 73.4343 104.573 73.7481 104.322 74.0492C104.284 74.0956 104.033 74.4133 103.571 74.6479C103.835 74.913 104.04 75.2454 104.154 75.6293C104.521 76.8648 103.816 78.1639 102.581 78.5307C102.251 78.6285 101.927 78.7224 101.611 78.8158C101.603 78.858 101.595 78.9012 101.585 78.9438C101.428 79.5857 101.052 79.9816 100.845 80.1645C100.458 80.5058 100.047 80.6451 99.9219 80.6869C99.729 80.7516 99.5381 80.7951 99.375 80.8266C98.7532 80.9464 97.7687 81.0294 96.2901 81.0707C95.2065 81.101 94.1272 81.1358 93.0733 81.1693C92.7655 81.2334 92.5177 81.2792 92.3203 81.3109C92.1646 81.336 92.0381 81.351 91.9375 81.3627C91.9129 81.3661 91.8876 81.3696 91.8623 81.3725L91.8604 81.3734C91.8559 81.3739 91.851 81.374 91.8467 81.3744C91.7523 81.3847 91.6533 81.392 91.5537 81.392H91.5078C91.4987 81.3918 91.4738 81.3905 91.4424 81.3891C91.4267 81.3883 91.396 81.3873 91.3584 81.3842C91.3353 81.3823 91.2416 81.3747 91.1241 81.3529C91.0545 81.3389 90.8651 81.2891 90.7471 81.2494C90.7424 81.2474 90.7375 81.244 90.7325 81.2416C88.7353 81.3037 86.8961 81.3551 85.3731 81.3666C83.9511 81.3774 82.6863 81.3561 81.7784 81.2602C81.3729 81.2173 80.8018 81.1392 80.2979 80.934C80.0829 80.8464 79.5191 80.5966 79.0977 80.0043C77.7145 79.9441 76.1815 79.8554 74.5078 79.726C73.2228 79.6266 72.2611 78.5041 72.3604 77.2191C72.4335 76.2749 73.0591 75.5066 73.8955 75.2045C73.5964 74.9047 73.4522 74.6001 73.3994 74.4828C73.32 74.3063 73.274 74.1503 73.2491 74.0551C73.2298 73.9813 73.2164 73.9079 73.2032 73.8393C73.1357 74.1404 73.0634 74.4362 72.9834 74.6596C72.9641 74.7137 72.8656 75 72.6621 75.2914C72.6046 75.3739 72.2437 75.9116 71.5088 76.1703C71.0531 76.3307 70.4906 76.3681 69.9258 76.1615C69.8723 76.1419 69.8211 76.1193 69.7715 76.0971C69.7566 76.1573 69.7426 76.2177 69.7266 76.2758C69.6601 76.5176 69.5015 77.0706 69.1621 77.5375C69.0617 77.6757 68.8667 77.9177 68.5567 78.1332C68.336 78.2866 67.9947 78.4628 67.5616 78.5326C67.2628 78.6201 66.9419 78.6505 66.6133 78.6088C65.7696 78.5013 65.1401 78.3705 64.2715 77.9848C63.5353 77.6577 62.6241 77.1517 61.8116 76.5854L61.666 76.4848L61.5371 76.3617C61.4742 76.3019 61.4123 76.2374 61.3477 76.1742C60.7486 76.0746 60.276 75.7781 60.0039 75.5531C59.5643 75.1894 59.253 74.7295 59.0391 74.3695C58.7963 73.9607 58.6778 73.5274 58.6084 73.2172C58.6023 73.1899 58.5968 73.1622 58.5909 73.1342C57.8748 72.2755 57.1536 71.369 56.4805 70.4848C56.4212 70.4731 56.3653 70.4605 56.3145 70.4467C55.6538 70.2669 55.2344 69.8528 55.1192 69.7387C54.9292 69.5505 54.7737 69.3502 54.6543 69.1742C54.2409 68.5643 53.9606 67.8227 53.7295 67.1449C53.6009 66.7675 53.4603 66.3254 53.3067 65.8334C53.2237 65.6823 53.1475 65.5379 53.0811 65.4018C52.9687 65.1713 52.8442 64.8911 52.7559 64.5961C52.7222 64.4836 52.6078 64.1072 52.626 63.6215C52.5939 63.511 52.562 63.3989 52.5303 63.2865C51.8413 63.0037 51.3943 62.5062 51.1524 62.1732C50.8287 61.7274 50.6038 61.2166 50.4737 60.7123C49.9658 58.7423 49.5386 54.8863 49.9707 50.2152C48.4301 52.0978 46.9163 53.5826 45.626 54.6928C44.6162 55.5616 43.7333 56.2118 43.0674 56.6498C42.7384 56.8662 42.4402 57.0446 42.1924 57.1762C42.0763 57.2378 41.9243 57.315 41.7617 57.3793C41.69 57.4077 41.537 57.4652 41.3448 57.5072C41.2521 57.5275 41.0655 57.5637 40.8301 57.5639C40.6577 57.564 40.0792 57.5517 39.4951 57.1498C39.3735 57.0661 39.2534 56.9815 39.1358 56.8959C37.8971 58.0765 36.5559 59.3862 35.0625 60.8793C35.0914 60.9138 35.1205 60.9468 35.1475 60.9799C35.4793 61.3857 35.8307 61.8749 36.1631 62.4057C36.7971 63.4178 37.5068 64.8106 37.751 66.2094C38.2716 69.1919 38.1572 73.1163 37.9219 75.5951C38.2722 75.6547 38.6471 75.7206 39.0479 75.7865C42.2708 76.3168 46.9811 77.0319 53.2344 78.0092C54.5977 78.2223 55.7558 78.5261 56.5274 78.9086C56.7275 79.0078 56.9982 79.1594 57.2578 79.3793C57.4306 79.5257 58.0536 80.0723 58.1641 81.0307C58.2568 81.8356 57.9639 82.4442 57.6114 82.8607C61.3194 84.4554 64.8832 85.8908 67.8594 86.934L68.9619 87.3119L69.0586 87.3441L69.1524 87.3842C71.9248 88.5862 73.3963 89.949 74.7149 91.1664C75.6618 92.0407 75.7207 93.5182 74.8467 94.4652C73.9723 95.4122 72.4949 95.4705 71.5479 94.5961C70.3349 93.4762 69.3436 92.5662 67.3623 91.6967C61.3737 89.6885 52.8635 85.9772 45.5674 82.5522L45.8867 81.5912C42.8026 81.1128 40.2664 80.7181 38.2901 80.393C37.3048 80.2309 36.4437 80.0824 35.7129 79.9486C35.561 80.1544 35.3542 80.3816 35.0752 80.5785C34.518 80.9717 33.8041 81.1501 33.0733 81.0014C32.492 80.8829 32.0862 80.5913 31.9219 80.4672C31.7359 80.3267 31.5697 80.1706 31.4981 80.1039C31.4501 80.0593 31.4114 80.0253 31.3819 79.9984C30.9281 79.8476 30.5108 79.7235 30.0899 79.6684C29.5877 79.6027 29.2836 79.6657 29.0821 79.7748C29.1781 79.7228 29.0604 79.7694 28.625 80.3363C28.3344 80.7149 27.731 81.5656 27.2246 82.1879C26.1199 83.5454 24.3003 85.3872 21.4639 85.5258C20.939 85.5514 20.1058 85.5575 19.2959 85.3578C18.5791 85.181 17.0711 84.6242 16.6162 82.9301C16.2314 81.4966 16.2447 79.5648 16.6621 77.5492C17.0892 75.4871 17.9727 73.1676 19.502 70.9506C20.5494 69.4321 21.7497 68.1714 22.6778 67.2787C22.7819 66.9571 22.9557 66.6525 23.2041 66.391C28.7437 60.5625 32.7142 56.5661 35.9903 53.4467C35.7442 52.9646 35.5568 52.4611 35.4375 51.934C34.9536 49.7942 35.7037 47.8605 36.8545 46.309C37.9863 44.7834 39.6382 43.4293 41.4483 42.2397C43.2814 41.0349 45.406 39.9146 47.6035 38.8959C51.9982 36.8588 56.8527 35.1492 60.6104 33.9281C62.4951 33.3157 64.1193 32.8216 65.2813 32.4691C65.5252 32.3951 65.7458 32.3261 65.9434 32.266C65.9993 32.2211 66.0553 32.1754 66.1114 32.1303C63.1367 31.1804 59.6918 29.947 56.3623 28.3324C55.897 28.1068 55.448 27.8527 55.0137 27.5766C52.2751 29.0148 49.5431 30.4629 47.0801 31.8324C48.2744 32.0394 49.1238 33.1356 49.002 34.3607C48.8741 35.6428 47.7313 36.5788 46.4492 36.4516C44.5963 36.2671 42.7241 36.0791 40.6573 35.8188C38.925 36.9907 37.4935 38.039 36.3526 38.9721C35.3598 39.784 34.6251 40.4753 34.1133 41.0512C34.1789 41.2665 34.2158 41.4951 34.2159 41.7318C34.2159 43.0207 33.1707 44.0657 31.8819 44.0658C31.8099 44.0658 31.2849 44.0835 30.7715 43.9379C30.0662 43.7378 29.1966 43.1829 28.876 42.0629L28.6739 41.3559L28.9131 40.6615C29.2443 39.6991 29.8728 38.8036 30.5899 37.9906C31.3267 37.1555 32.2737 36.2779 33.3975 35.3588C33.6174 35.179 33.8465 34.9975 34.083 34.8119C29.4054 33.9711 23.6816 32.6895 19.959 31.393C15.9487 29.9962 14.261 28.5642 13.0879 27.1908C12.0169 25.9368 11.5342 24.9322 11.125 24.0844C10.5649 22.9237 11.0514 21.5285 12.2119 20.9682C13.3725 20.4084 14.7679 20.8947 15.3282 22.0551C15.6967 22.8187 15.9695 23.3783 16.6367 24.1596C17.2021 24.8216 18.1564 25.8232 21.4942 26.9858C24.9896 28.2031 30.694 29.4811 35.3789 30.3051C36.8764 30.5685 38.2473 30.7799 39.5342 30.9604C40.5314 30.3088 41.5982 29.63 42.7354 28.9272L42.7686 28.9076L42.8008 28.8891C45.3348 27.435 48.2695 25.8559 51.2461 24.2836C49.6171 22.4377 48.2932 20.3469 47.2119 18.432C45.0257 14.5603 43.9296 10.4666 43.376 7.91837C42.8027 5.27972 42.7901 4.15314 42.7901 3.02481C42.7902 1.73598 43.8352 0.690828 45.1241 0.690828C46.4127 0.691032 47.4579 1.73611 47.458 3.02481C47.458 3.87048 47.445 4.66015 47.9375 6.92716C48.4498 9.28512 49.4241 12.8568 51.2764 16.1371C52.5495 18.3917 53.9554 20.4681 55.5352 22.0307C56.6559 21.4447 57.7585 20.8696 58.8213 20.3119C59.9625 19.7134 61.3738 20.1533 61.9727 21.2943C62.5711 22.4354 62.131 23.8457 60.9903 24.4447C60.6928 24.6008 60.3917 24.7564 60.0899 24.9145C65.9231 27.4958 71.5339 28.7897 74.6563 29.8441C75.8771 30.2566 76.5331 31.5812 76.1211 32.8022C75.7088 34.0231 74.3841 34.679 73.1631 34.267C72.7227 34.1183 72.1734 33.9521 71.5352 33.7631C71.2349 34.0036 70.936 34.2433 70.6397 34.4809C70.5733 34.6939 70.4971 34.8404 70.4698 34.892C70.3481 35.1216 70.2092 35.2915 70.167 35.3432C70.0473 35.4898 69.9076 35.6354 69.7969 35.7475C69.3344 36.2155 68.4857 36.9904 67.5381 37.8246C65.6608 39.4772 63.0386 41.6771 61.6973 42.5688L61.6543 42.5971L61.6104 42.6234C61.3023 42.8092 60.9709 42.9995 60.6709 43.1508C60.5237 43.225 60.3473 43.3078 60.1651 43.3783C60.1624 43.3794 60.1594 43.3801 60.1563 43.3813C60.1671 43.4471 60.1772 43.5058 60.1846 43.5492C60.2251 43.788 60.2641 44.0342 60.3028 44.2865C60.4031 44.3065 60.5051 44.3324 60.6075 44.3666C61.1148 44.5359 61.4796 44.8357 61.7207 45.1127C62.1453 45.6006 62.299 46.1444 62.3604 46.3891C62.4989 46.9419 62.5375 47.6089 62.5576 48.1742C62.5796 48.7905 62.5834 49.5405 62.5889 50.35C62.5945 51.1741 62.6023 52.0956 62.6289 53.1078C62.6563 54.1455 62.6764 55.3195 62.6934 56.5551C62.8848 56.5358 63.0796 56.529 63.2764 56.5375C63.4097 56.3993 63.5796 56.2566 63.792 56.1332C64.5536 55.691 65.4114 55.745 66.0576 56.0785C66.5463 56.3309 66.8152 56.6862 66.9053 56.8109C67.0224 56.973 67.0994 57.1211 67.1416 57.2074C67.2844 57.4999 67.3923 57.8552 67.4639 58.0961C67.633 58.6653 67.786 59.3005 67.9287 59.9867C67.9765 59.9291 68.0281 59.8716 68.084 59.8158C68.3746 59.5262 68.9864 59.0756 69.877 59.1107C70.1688 59.1223 70.4255 59.1839 70.6465 59.2699C70.6799 58.9107 70.7074 58.5781 70.7276 58.2787C70.7473 57.9852 70.7933 57.637 70.8955 57.2904C70.9557 57.0866 71.1909 56.2892 71.9668 55.7602C72.4631 55.4218 73.1236 55.2402 73.8262 55.3773C74.4499 55.4991 74.874 55.8268 75.1035 56.0463C75.417 56.3461 75.6267 56.6941 75.7666 56.974C75.8653 56.8042 76.0122 56.5984 76.2207 56.4057C76.4651 56.1799 76.908 55.8696 77.544 55.7934C78.2135 55.7132 78.7711 55.9305 79.1407 56.1791C79.7287 56.5749 79.9608 57.1208 79.9981 57.2035C80.081 57.3875 80.1292 57.5531 80.1553 57.6498C80.1562 57.6531 80.1564 57.6572 80.1573 57.6606C80.2723 57.4945 80.5306 57.1581 80.9737 56.9027C81.58 56.5534 82.4473 56.4215 83.2725 56.8481C83.9047 57.175 84.2041 57.6815 84.3067 57.8705C84.3401 57.9321 84.3694 57.9932 84.3955 58.0512C84.4142 58.0515 84.4332 58.0504 84.4522 58.0512C85.6324 58.0981 86.302 58.8996 86.543 59.2397C86.8366 59.654 87.0314 60.1275 87.1729 60.5619C87.2529 60.8077 87.3271 61.0606 87.3994 61.3178C87.5295 61.0523 87.6861 60.7768 87.8741 60.5268C88.0273 60.323 88.6865 59.4561 89.8926 59.3949C90.6539 59.3564 91.2126 59.6374 91.6006 59.9613C91.6617 59.7413 91.7222 59.5345 91.7813 59.3441C91.919 58.9005 92.1525 58.2834 92.5909 57.7748C92.8205 57.5085 93.2414 57.1145 93.8897 56.9272C94.6253 56.7146 95.3493 56.8556 95.9112 57.1918C96.0127 57.2526 96.1052 57.319 96.1905 57.3861C96.2222 57.3253 96.2587 57.2607 96.2989 57.1947C96.3696 57.0785 96.5431 56.8066 96.8389 56.5531L96.9815 56.4389C97.3556 56.1607 98.0087 55.8254 98.8633 55.9477C99.3151 56.0124 99.6744 56.1858 99.9522 56.3832C99.9727 56.357 99.9938 56.3303 100.016 56.3041C100.16 56.1317 100.488 55.7684 101.022 55.5375C101.984 55.1219 103.293 55.0154 104.411 55.9096C104.564 56.0322 104.701 56.1651 104.822 56.3031C105.057 56.0698 105.488 55.7411 106.131 55.644C106.928 55.5234 107.56 55.8302 107.925 56.1137C108.251 56.3672 108.432 56.6457 108.511 56.7777C108.671 57.0479 108.745 57.2962 108.77 57.3813C108.805 57.501 108.829 57.6111 108.846 57.6938C108.875 57.8407 108.899 58.0093 108.921 58.1879C108.975 58.0316 109.028 57.8828 109.082 57.7455C109.195 57.4578 109.373 57.0437 109.632 56.6811C109.749 56.5174 110.029 56.1504 110.51 55.8813C110.882 55.6728 111.369 55.5355 111.891 55.5727C112.249 53.5179 112.608 51.4497 112.891 49.9848C112.893 49.9734 112.894 49.9619 112.897 49.9506C112.711 49.9337 112.525 49.9165 112.339 49.8998C112.337 50.4857 112.127 50.9688 111.93 51.2807C111.679 51.6779 111.365 51.9522 111.148 52.1195C110.677 52.4838 110.175 52.5969 110.029 52.6303C109.81 52.6806 109.583 52.7126 109.41 52.7348C109.228 52.7581 109.01 52.7829 108.799 52.807C108.578 52.8323 108.334 52.8608 108.06 52.8969C106.976 53.0396 105.353 53.3068 103.077 53.9369C101.208 54.4546 98.8847 55.1265 96.8213 55.5043C95.7857 55.6939 94.7153 55.8295 93.7295 55.8158C92.8022 55.8029 91.6168 55.6582 90.6172 54.9877C90.2441 54.7374 89.8847 54.4122 89.5498 54.018C89.2059 54.1963 88.763 54.3253 88.2315 54.2709C87.393 54.185 86.8883 53.6979 86.6992 53.4867C86.3405 53.0859 86.1954 52.6437 86.1641 52.5531C85.9736 52.0025 85.83 51.0853 85.6905 50.0043C85.3828 47.621 84.8008 40.8275 84.8008 34.8207C84.8008 34.2291 85.0229 33.6901 85.3858 33.2787C83.9916 33.268 82.4967 33.2602 80.9112 33.2602C79.6222 33.2602 78.5772 32.2151 78.5772 30.9262C78.5775 29.6375 79.6224 28.5932 80.9112 28.5932C82.3965 28.5932 83.8048 28.5996 85.128 28.6088C85.2065 28.5763 85.2718 28.5521 85.3194 28.5365C85.4907 28.4804 85.6464 28.4481 85.7598 28.4281C85.9865 28.3882 86.2198 28.3681 86.4258 28.3568C86.8472 28.3339 87.3892 28.335 88.0362 28.352C88.3757 28.3609 88.6375 28.4462 88.6553 28.4516C88.7353 28.4758 88.7979 28.4995 88.8282 28.5111C88.892 28.5358 88.945 28.5597 88.9698 28.5707C89.0251 28.5955 89.0829 28.6222 89.126 28.643C89.1333 28.6465 89.1406 28.6509 89.1485 28.6547C90.7137 28.6792 92.0976 28.7073 93.2774 28.7436C94.7514 28.7888 95.9308 28.8419 96.7559 28.9018C97.1595 28.9311 97.5261 28.9656 97.8145 29.0082C97.9441 29.0274 98.1479 29.0605 98.3565 29.1215C98.4457 29.1476 98.6685 29.2156 98.916 29.3568C99.0403 29.4277 99.2691 29.5722 99.4951 29.8188C99.6979 30.0399 99.9741 30.4305 100.075 30.9818L100.107 31.2279L100.116 31.4545C102.037 31.8122 103.949 32.1732 105.685 32.519C107.304 32.8416 108.795 33.1557 110.014 33.4457C111.17 33.7211 112.262 34.0155 112.964 34.3217L114.102 34.8178C114.879 34.1926 116.141 33.1756 118.147 31.5473C120.821 29.3778 124.8 26.1413 128.988 22.6938C127.474 21.8964 126.17 21.3289 125.124 20.9789C123.951 20.5863 123.35 20.5507 123.194 20.5688C121.915 20.7187 120.755 19.8027 120.605 18.5229C120.454 17.2427 121.371 16.0832 122.651 15.933C123.861 15.7913 125.268 16.1043 126.605 16.5522C128.019 17.0253 129.65 17.7518 131.421 18.6986C131.888 18.9482 132.367 19.2147 132.856 19.4975C136.351 16.5974 139.758 13.7318 142.453 11.3861C149.328 5.40213 151.136 3.16171 153.01 0.859774ZM151.515 70.1029C152.094 69.8883 152.885 69.7076 153.752 69.8822C154.645 70.0624 155.376 70.5706 155.884 71.2758L155.982 71.4193L156.103 71.6244C156.36 72.1181 156.452 72.7113 156.309 73.308C156.179 73.8466 155.898 74.2102 155.761 74.3725C155.618 74.5414 155.454 74.6936 155.29 74.8295C155.228 74.8986 155.162 74.966 155.091 75.0287C153.787 76.1725 152.378 77.1547 151.193 77.8852C151.264 78.0773 151.315 78.2823 151.341 78.4984C151.43 79.2449 151.194 79.8645 151.028 80.2152C150.764 80.7749 150.349 81.0809 150.252 81.1537C150.088 81.2761 149.93 81.3669 149.824 81.4242C149.606 81.5419 149.355 81.6538 149.118 81.7543C148.634 81.96 147.938 82.2305 147.077 82.5658C145.326 83.2474 142.694 84.2732 139.051 85.8207C134.398 87.797 127.996 90.7021 121.554 93.6254C120.38 94.1579 118.997 93.6377 118.464 92.4643C117.931 91.2906 118.451 89.9072 119.624 89.3744C123.514 87.6091 127.42 85.8372 130.943 84.269C130.988 84.0919 131.041 83.9589 131.073 83.8871C131.208 83.5855 131.376 83.385 131.436 83.3158C131.574 83.155 131.705 83.0477 131.74 83.019C131.838 82.9387 131.931 82.8767 131.972 82.849C132.279 82.6422 133.087 82.1696 134.702 81.2631C137.224 79.8473 141.837 77.3092 145.579 75.2123C146.182 74.4652 147.305 73.1595 148.537 72.057C149.335 71.3437 150.39 70.52 151.515 70.1029ZM149.374 84.3275C150.008 84.3275 150.726 84.5014 151.357 84.6957C151.877 84.8556 152.465 85.0697 153.104 85.3383L153.759 85.6244L153.867 85.6742L153.97 85.7338C154.48 86.0311 154.87 86.3406 155.172 86.5932C155.512 86.8774 155.634 86.9919 155.833 87.1391C156.192 87.4043 156.68 87.6572 157.426 88.0326C158.577 88.6123 159.04 90.0162 158.46 91.1674C157.88 92.3181 156.477 92.7819 155.326 92.2025C154.672 91.873 153.8 91.4408 153.06 90.894C152.709 90.6352 152.352 90.3196 152.177 90.1732C152 90.0256 151.859 89.9174 151.712 89.8236C151.014 89.512 150.43 89.2935 149.985 89.1566C149.454 88.9933 149.284 88.9955 149.374 88.9955C148.085 88.9955 147.04 87.9503 147.04 86.6615C147.04 85.3726 148.085 84.3276 149.374 84.3275ZM160.513 76.0395C160.634 76.0472 160.789 76.0639 160.959 76.099C161.29 76.1675 161.589 76.2845 161.861 76.4203C162.361 76.6692 162.948 77.0716 163.709 77.6566C165.267 78.8546 168.032 81.2007 170.469 83.6234C171.383 84.5322 171.387 86.0102 170.479 86.9242C169.57 87.8381 168.092 87.8427 167.178 86.934C164.887 84.6568 162.273 82.4398 160.864 81.3568C160.518 81.0907 160.264 80.9082 160.079 80.7836C160.005 80.7337 159.946 80.6963 159.9 80.6684C158.785 80.4927 157.932 79.531 157.932 78.3666C157.932 77.0778 158.977 76.0328 160.266 76.0326L160.513 76.0395ZM31.7608 64.2279C30.4843 65.5373 29.1059 66.9671 27.6055 68.5395C27.4997 68.9851 27.2627 69.4043 26.8965 69.7338C26.058 70.4882 24.5509 71.8525 23.3448 73.601C22.1994 75.2614 21.5441 76.9908 21.2325 78.4955C21.0328 79.4596 20.9853 80.2705 21.0117 80.8705C21.0858 80.8697 21.1612 80.8673 21.2364 80.8637C21.9924 80.8268 22.6919 80.3619 23.6035 79.2416C24.1053 78.625 24.385 78.1941 24.9229 77.4936C25.3161 76.9815 25.9725 76.1511 26.8604 75.6703C28.2202 74.9342 29.6143 74.8988 30.6963 75.0404C31.1096 75.0946 31.5068 75.1793 31.8682 75.2729C32.2771 74.8933 32.7907 74.6877 33.3145 74.6576C33.493 72.439 33.5474 69.27 33.1534 67.0121C33.0608 66.4822 32.7122 65.6897 32.2071 64.8832C32.0554 64.641 31.9025 64.4198 31.7608 64.2279ZM160.225 80.6986L160.266 80.7006C160.251 80.7006 160.237 80.6979 160.223 80.6977L160.225 80.6986ZM94.0762 70.4779C93.7255 72.1444 93.3694 73.7385 93.0528 74.6889C92.973 74.9284 92.8646 75.2239 92.7217 75.4984C92.6524 75.6316 92.5309 75.8462 92.3448 76.0648C92.2625 76.1614 92.085 76.355 91.8096 76.5375C91.8375 76.5366 91.8657 76.5364 91.8936 76.5356C92.3819 76.3752 93.0528 76.1623 93.8233 75.9838C94.3778 75.8553 95.0119 75.7395 95.6983 75.6732C97.0892 75.2807 98.808 74.7783 100.828 74.1801C100.719 74.0665 100.629 73.9553 100.561 73.8559C100.456 73.9358 100.34 74.0162 100.206 74.0844C99.761 74.311 99.1688 74.4281 98.5391 74.2592C97.9647 74.1049 97.596 73.776 97.4053 73.5639C97.0661 73.1866 96.9431 72.7954 96.918 72.7191C96.7976 72.3522 96.7871 71.9816 96.7862 71.9643C96.772 71.7076 96.7712 71.3402 96.7793 70.8773C96.7864 70.4761 96.7929 70.0711 96.7998 69.6654C96.4632 69.8709 95.9794 70.0597 95.3604 70.0053C94.9003 69.9648 94.5363 69.8103 94.253 69.6186C94.193 69.908 94.1356 70.1955 94.0762 70.4779ZM80.2012 73.5248C79.956 73.6684 79.5644 73.8393 79.0576 73.8481C78.6697 73.8547 78.3119 73.7631 78.002 73.6137C77.9653 73.788 77.9221 73.9751 77.8662 74.1469C77.8396 74.2289 77.7306 74.5746 77.4805 74.9174C77.4348 74.98 77.3444 75.0974 77.2061 75.2309C78.2539 75.2941 79.2232 75.3422 80.1123 75.3744C80.087 75.2143 80.0833 75.0904 80.0821 75.0385C80.0798 74.9422 80.0834 74.8604 80.086 74.8119C80.094 74.6625 80.1183 74.4421 80.1319 74.31C80.1509 74.1242 80.1747 73.8682 80.2012 73.5248ZM119.068 58.516C119.032 58.6065 118.883 58.9839 118.522 59.3363C118.317 59.5351 117.961 59.8078 117.441 59.934C116.882 60.0698 116.343 59.9844 115.91 59.7846C115.902 59.7806 115.893 59.7759 115.885 59.7719C115.715 60.6972 115.551 61.5665 115.396 62.3109C115.198 63.2604 114.965 64.2876 114.704 64.8881C114.676 64.9523 114.551 65.2539 114.339 65.5336C114.274 65.6186 114.143 65.7814 113.942 65.9457C113.768 66.0882 113.319 66.4166 112.64 66.4711C112.285 66.4994 111.959 66.4465 111.67 66.3432C111.564 66.8221 111.458 67.3051 111.353 67.7856C111.039 69.2147 110.728 70.635 110.451 71.8422C111.483 70.9844 112.655 70.0647 113.79 69.1703C115.226 68.0384 116.612 66.9394 117.729 65.9545L117.841 65.8607C117.897 65.8169 117.97 65.7636 118.056 65.7104C118.131 65.6634 118.334 65.5409 118.621 65.4545C118.76 65.4126 118.987 65.3609 119.271 65.3578C120.278 64.3628 121.144 63.2494 121.941 62.1049C121.219 61.9377 120.754 61.4808 120.597 61.3139C120.094 60.7782 119.749 59.9999 119.502 59.393C119.386 59.1081 119.256 58.7613 119.116 58.3773C119.102 58.4214 119.087 58.4688 119.068 58.516ZM2.33401 38.7074C3.62294 38.7074 4.668 39.7525 4.668 41.0414C4.668 41.3316 4.67568 41.3261 4.68558 41.3568C4.70813 41.4273 4.80913 41.692 5.23538 42.2621C6.10113 43.42 7.83436 45.239 9.43948 46.5072C16.11 49.3601 20.8828 49.6037 24.044 48.3656C25.2441 47.8955 26.5982 48.4878 27.0684 49.6879C27.5384 50.888 26.9472 52.2422 25.7471 52.7123C20.8686 54.6232 14.6019 53.8441 7.31155 50.6742L7.05081 50.5609L6.82522 50.3891C4.8133 48.8528 2.65686 46.6082 1.4971 45.057C0.891306 44.2467 0.475829 43.5158 0.240263 42.7797C-0.00791596 42.0039 2.82096e-05 41.378 2.88716e-05 41.0414C2.88716e-05 39.7526 1.04524 38.7076 2.33401 38.7074ZM89.961 34.2865C90.1563 34.4231 90.2914 34.5603 90.3662 34.644C90.7099 35.0284 90.8348 35.4374 90.8428 35.4613C90.8835 35.5803 90.9081 35.6815 90.92 35.7338C90.9624 35.921 90.9885 36.1294 91.0039 36.2572C91.0758 36.8521 91.1739 38.0435 91.2862 39.4174C91.5181 42.2549 91.8255 46.0636 92.1504 48.3832C92.2896 49.3769 92.5507 50.0716 92.792 50.519C92.9753 50.8587 93.1308 51.0263 93.1924 51.0863C93.2515 51.1018 93.4303 51.1437 93.794 51.1488C94.3472 51.1565 95.0818 51.078 95.9805 50.9135C97.1301 50.703 98.386 50.3813 99.6573 50.0365C99.571 49.9692 99.4865 49.9003 99.4073 49.8285C99.1328 49.5798 98.0488 48.5334 98.4912 46.9887C98.6984 46.2662 99.1617 45.8147 99.4981 45.5697C99.8306 45.3276 100.169 45.1889 100.415 45.1059C101.295 44.8085 102.507 44.7427 103.585 44.7299C104.768 44.7159 106.175 44.7693 107.647 44.8568C110.057 45.0001 112.743 45.2421 115.091 45.4672C115.412 45.3376 115.81 45.2585 116.276 45.3178C116.682 45.3694 117.01 45.5119 117.268 45.6781C117.486 45.6994 117.698 45.7206 117.903 45.7406C117.883 45.6832 117.867 45.6314 117.854 45.5873C117.777 45.3314 117.724 45.0597 117.698 44.7895C117.646 44.238 117.501 42.0427 117.396 40.4008C117.342 39.5668 117.297 38.8496 117.276 38.515C117.271 38.4337 117.267 38.3677 117.265 38.3285C117.264 38.3191 117.263 38.3041 117.263 38.2895C117.263 38.2855 117.262 38.2773 117.262 38.267C116.806 38.6341 116.485 38.8938 116.261 39.0717C116.107 39.194 115.99 39.2859 115.905 39.351C115.864 39.3826 115.819 39.4163 115.775 39.4477C115.754 39.4629 115.723 39.486 115.686 39.5111C115.669 39.5223 115.569 39.5904 115.437 39.6586C115.413 39.6705 115.166 39.8049 114.825 39.8734C114.701 39.8985 114.142 40.0107 113.494 39.7504C113.112 39.5967 112.711 39.3159 112.417 38.8715C112.404 38.8513 112.392 38.8302 112.38 38.81C112.214 38.8529 112.053 38.8864 111.927 38.9096C111.776 38.9373 111.611 38.9645 111.469 38.9877C111.318 39.0124 111.176 39.035 111.033 39.0609C110.742 39.1138 110.5 39.1689 110.303 39.2309C110.23 39.2538 110.176 39.2761 110.136 39.2924C110.128 39.3211 110.118 39.3583 110.108 39.4057C110.036 39.7655 110.027 40.2435 110.027 41.0414C110.027 42.3303 108.982 43.3754 107.693 43.3754C106.404 43.3754 105.359 42.3303 105.359 41.0414C105.359 40.3656 105.35 39.3913 105.531 38.4887C105.605 38.1227 105.718 37.7235 105.895 37.3236C105.532 37.2493 105.157 37.1737 104.772 37.0971C102.327 36.61 99.5343 36.0927 96.8321 35.5922C96.8283 35.5929 96.8241 35.5945 96.8203 35.5951C95.3366 35.8528 93.6459 35.4515 92.3711 35.0541C91.75 34.8605 91.1333 34.6347 90.5518 34.4047C90.3511 34.3652 90.1541 34.3251 89.961 34.2865ZM129.626 50.5287C129.638 50.5315 129.649 50.5345 129.661 50.5375C129.648 50.5271 129.635 50.5167 129.621 50.5063C129.622 50.5138 129.625 50.5212 129.626 50.5287ZM44.0117 46.14C42.4108 47.1923 41.2684 48.1917 40.6026 49.0893C40.5221 49.1977 40.4507 49.3017 40.3877 49.4008C41.852 48.1033 43.2436 46.9168 44.6885 45.7094C44.4571 45.8524 44.231 45.996 44.0117 46.14ZM55.2481 46.3275L55.4131 46.4779L55.4424 46.5092C55.4282 46.0991 55.4163 45.7335 55.4063 45.4086C55.3568 45.6956 55.3044 46.0031 55.2481 46.3275ZM133.256 25.226C128.577 29.0866 124.029 32.787 121.089 35.1723C120.404 35.728 119.804 36.2122 119.28 36.6361C120.046 36.4938 120.913 36.5641 121.657 37.0873C121.772 37.3393 121.874 37.6792 121.89 37.7572C121.896 37.7934 121.905 37.8513 121.908 37.8725C121.91 37.8863 121.913 37.9095 121.914 37.9193L121.924 38.0268C121.929 38.0999 121.942 38.3016 121.965 38.6469C121.988 39.0028 122.145 39.5925 122.465 40.4701C122.558 40.5656 122.638 40.6644 122.708 40.7602C123.484 40.3963 124.432 40.4748 125.149 41.0434C125.606 41.405 126.062 41.7662 126.516 42.1254C126.557 41.8364 126.662 41.4764 126.908 41.1176C127.384 40.4257 128.085 40.1586 128.617 40.1029C129.074 40.0553 129.434 40.1519 129.595 40.2016C129.783 40.2596 129.934 40.3296 130.03 40.3783C130.222 40.4755 130.387 40.585 130.5 40.6645C130.567 40.7116 130.635 40.7645 130.705 40.8178C130.703 40.7797 130.702 40.7409 130.702 40.7016C130.702 39.4128 131.747 38.3677 133.036 38.3676C133.525 38.3676 133.978 38.5184 134.353 38.7748C134.432 38.7994 134.533 38.8297 134.657 38.8627C135.246 39.0186 136.215 39.224 137.609 39.4477C140.386 39.8929 144.721 40.3919 150.833 40.7455C151.103 40.7612 151.377 40.7693 151.652 40.7748C151.637 40.7583 151.622 40.7414 151.606 40.725C149.463 38.4633 146.291 35.5771 140.609 30.7553C138.037 28.5724 135.543 26.7251 133.256 25.226ZM57.001 40.1039C56.4116 40.3185 55.8157 40.5406 55.2168 40.769C55.5728 41.1234 55.7133 41.491 55.7383 41.5531C55.7693 41.6301 55.793 41.7058 55.8135 41.7768C55.8853 41.6744 55.9693 41.5685 56.0703 41.4672C56.2274 41.3099 56.4552 41.1313 56.7471 40.9955C56.7519 40.9385 56.757 40.8851 56.7647 40.8363C56.8143 40.5208 56.9193 40.2674 57.001 40.1039ZM81.4082 11.0981C81.8768 11.0491 82.3906 11.0513 82.9073 11.0785C83.9462 11.1332 85.2621 11.3036 86.7842 11.5522C89.828 12.0492 93.9658 12.9038 98.9346 13.9731C101.052 14.3192 102.88 14.4957 104.741 14.6518C106.605 14.808 108.547 14.9472 110.764 15.224C112.043 15.3838 112.95 16.5506 112.79 17.8295C112.63 19.1084 111.464 20.0155 110.186 19.8559C108.09 19.5941 106.278 19.4646 104.352 19.3031C102.436 19.1426 100.451 18.9529 98.1309 18.5717L98.0742 18.5629L98.0186 18.5512C93.0091 17.4729 88.9575 16.6362 86.0323 16.1586C85.1456 16.0138 84.3864 15.908 83.752 15.8363C83.789 16.8108 83.2104 17.7425 82.2481 18.1068C81.0426 18.5631 79.6956 17.9558 79.2393 16.7504C79.0856 16.3445 78.8567 15.7503 78.7198 15.1733C78.5997 14.667 78.4114 13.6535 78.8701 12.6391L79.1455 12.0287L79.7032 11.6576C80.3248 11.2439 81.0127 11.1394 81.4082 11.0981Z" fill="#FFE479"/>
</svg>
