<svg width="33" height="34" viewBox="0 0 33 34" fill="none" xmlns="http://www.w3.org/2000/svg">
<ellipse cx="16.5" cy="16.5534" rx="16.5" ry="16.5534" fill="white"/>
<path d="M11.07 25.0066V22.4795C11.9959 21.7206 12.9065 20.9693 13.802 20.2256C14.7127 19.4819 15.5247 18.7458 16.238 18.0173C16.9666 17.2736 17.5433 16.5526 17.9683 15.8544C18.3933 15.1411 18.6058 14.4581 18.6058 13.8054C18.6058 13.426 18.5299 13.0769 18.3781 12.7582C18.2415 12.4243 18.0214 12.1663 17.7179 11.9841C17.4295 11.7868 17.0425 11.6882 16.5568 11.6882C16.0863 11.6882 15.684 11.7944 15.3501 12.0069C15.0162 12.2194 14.7658 12.5153 14.5988 12.8948C14.4319 13.2591 14.3484 13.684 14.3484 14.1697H11.0473C11.0928 12.9555 11.366 11.9462 11.8669 11.1418C12.3677 10.3373 13.0355 9.74541 13.8703 9.36597C14.7203 8.98653 15.6537 8.79681 16.6706 8.79681C17.8545 8.79681 18.841 9.01689 19.6303 9.45704C20.4195 9.88201 21.0114 10.4588 21.406 11.1873C21.8158 11.9006 22.0207 12.6975 22.0207 13.5778C22.0207 14.276 21.8993 14.9514 21.6565 15.604C21.4136 16.2415 21.0797 16.8638 20.6547 17.4709C20.2298 18.0628 19.7441 18.6395 19.1977 19.2011C18.6665 19.7475 18.1049 20.2787 17.513 20.7948C16.921 21.2956 16.3367 21.7737 15.7599 22.2291H22.3395V25.0066H11.07Z" fill="black"/>
</svg>
