<svg width="33" height="33" viewBox="0 0 33 33" fill="none" xmlns="http://www.w3.org/2000/svg">
<circle cx="16.5" cy="16.5" r="16.5" fill="white"/>
<path d="M16.6336 24.697C15.5863 24.697 14.6225 24.5073 13.7422 24.1279C12.8771 23.7484 12.1789 23.1717 11.6477 22.3976C11.1316 21.6084 10.8584 20.6066 10.8281 19.3924H14.152C14.1672 19.8629 14.2734 20.2879 14.4707 20.6673C14.668 21.0316 14.9488 21.32 15.3131 21.5325C15.6774 21.745 16.1175 21.8512 16.6336 21.8512C17.1041 21.8512 17.5063 21.7601 17.8402 21.578C18.1893 21.3807 18.4473 21.1303 18.6142 20.8267C18.7964 20.508 18.8874 20.1437 18.8874 19.7339C18.8874 19.2634 18.7736 18.8688 18.5459 18.5501C18.3183 18.2161 17.992 17.9657 17.567 17.7988C17.142 17.6166 16.6487 17.5256 16.0872 17.5256H14.9033V14.748H16.0872C16.7398 14.748 17.309 14.5963 17.7946 14.2927C18.2803 13.974 18.5232 13.4883 18.5232 12.8357C18.5232 12.2893 18.3486 11.8643 17.9995 11.5607C17.6505 11.242 17.1875 11.0826 16.6108 11.0826C15.9126 11.0826 15.3814 11.2875 15.0171 11.6973C14.6529 12.0919 14.448 12.57 14.4024 13.1316H11.1013C11.1468 12.0995 11.4048 11.2192 11.8753 10.4907C12.3459 9.74699 12.9833 9.18542 13.7877 8.80597C14.6073 8.41136 15.5483 8.21405 16.6108 8.21405C17.7339 8.21405 18.6901 8.41136 19.4794 8.80597C20.2686 9.2006 20.8605 9.73181 21.2552 10.3996C21.665 11.0523 21.8699 11.7656 21.8699 12.5397C21.8699 13.1923 21.7484 13.7615 21.5056 14.2472C21.2628 14.7177 20.944 15.1123 20.5494 15.431C20.1548 15.7346 19.7374 15.9547 19.2972 16.0913C19.8892 16.2127 20.3976 16.4479 20.8226 16.797C21.2628 17.1309 21.6043 17.5635 21.8471 18.0947C22.0899 18.6108 22.2114 19.2027 22.2114 19.8705C22.2114 20.7508 21.9913 21.5628 21.5511 22.3065C21.1262 23.0351 20.4963 23.6194 19.6615 24.0596C18.8419 24.4845 17.8326 24.697 16.6336 24.697Z" fill="black"/>
</svg>
