<svg width="115" height="154" viewBox="0 0 115 154" fill="none" xmlns="http://www.w3.org/2000/svg">
<path d="M64.1796 153.028C59.023 153.028 54.3541 152.401 50.173 151.146C46.1313 149.892 42.5077 148.15 39.3022 145.92C36.236 143.551 33.588 140.903 31.3581 137.976L27.8042 150.519H-9.46941e-06V3.55228e-05H31.3581V58.9533C34.703 54.2147 39.0234 50.3124 44.3195 47.2463C49.6155 44.1802 56.1659 42.6471 63.9706 42.6471C73.5871 42.6471 82.1583 45.0861 89.6842 49.964C97.3496 54.7025 103.412 61.2529 107.872 69.6151C112.332 77.8379 114.562 87.315 114.562 98.0464C114.562 108.499 112.332 117.907 107.872 126.269C103.412 134.631 97.4192 141.181 89.8933 145.92C82.3673 150.658 73.7961 153.028 64.1796 153.028ZM56.4446 125.642C61.4619 125.642 65.9217 124.457 69.8241 122.088C73.8658 119.718 77.0016 116.513 79.2315 112.471C81.4614 108.29 82.5764 103.482 82.5764 98.0464C82.5764 92.611 81.4614 87.8028 79.2315 83.6217C77.0016 79.3013 73.8658 75.9564 69.8241 73.5871C65.9217 71.2178 61.4619 70.0332 56.4446 70.0332C51.2879 70.0332 46.6888 71.2875 42.647 73.7962C38.7447 76.1654 35.6786 79.4406 33.4487 83.6217C31.2187 87.6634 30.1038 92.4717 30.1038 98.0464C30.1038 103.342 31.2187 108.081 33.4487 112.262C35.6786 116.443 38.7447 119.718 42.647 122.088C46.6888 124.457 51.2879 125.642 56.4446 125.642Z" fill="#FFE479"/>
</svg>
