<svg width="60" height="65" viewBox="0 0 60 65" fill="none" xmlns="http://www.w3.org/2000/svg">
<path d="M9.26127 2.04065C8.3205 3.26809 5.95427 8.81021 3.10339 19.9316C-0.299917 33.2081 4.95646 44.7781 12.0551 50.9712C19.6888 57.6309 32.2607 55.1557 39.2667 53.4044C41.9143 52.7426 42.2744 51.4485 42.5167 49.5918C42.759 47.7352 42.759 45.0757 42.8766 44.3194C42.9633 43.7622 43.4717 51.9878 43.9421 60.4653C44.085 63.0398 45.3533 61.9872 46.426 61.1534C50.4035 58.0616 53.906 55.7756 56.0619 53.5036C52.509 51.2253 49.1877 49.7809 46.6968 48.5442C45.617 47.9212 44.9115 47.3074 43.4717 46.0552" stroke="#FFE479" stroke-width="4.08111" stroke-linecap="round"/>
</svg>
