<svg width="194" height="121" viewBox="0 0 194 121" fill="none" xmlns="http://www.w3.org/2000/svg">
<path d="M16.7588 112.685C17.0861 112.657 17.9341 112.598 18.752 113.047L18.9151 113.143L19.0977 113.269C19.9714 113.926 20.2667 114.925 20.2227 115.747C20.1769 116.598 19.7948 117.335 19.3096 117.882C18.8551 118.395 18.2834 118.78 17.795 119.027C17.684 119.083 17.5631 119.136 17.4375 119.188C17.4072 119.227 17.3746 119.27 17.3379 119.311C17.2404 119.421 16.6852 120.05 15.6963 120.096C14.4367 120.155 13.7682 119.279 13.5723 118.946C13.3733 118.608 13.3095 118.302 13.291 118.21C13.1637 117.571 13.2232 116.878 13.4619 116.27C13.487 116.206 13.522 116.127 13.5664 116.039C13.5739 116.013 13.5796 115.986 13.5879 115.96C13.6071 115.9 13.6484 115.788 13.7129 115.653C13.7121 115.649 13.7099 115.644 13.709 115.64C13.4508 114.378 14.2652 113.145 15.5274 112.886C15.8272 112.825 16.3054 112.724 16.7588 112.685ZM79.1983 100.224C80.4871 100.224 81.5321 101.269 81.5323 102.558C81.5323 102.939 81.4404 103.303 81.4151 103.409C81.3717 103.59 81.3127 103.806 81.2578 104.009C81.1833 104.285 81.1 104.604 81.0098 104.968C81.2252 105.403 81.6051 105.906 82.2119 106.492C82.6009 106.805 83.0613 107.095 83.6924 107.484C84.7892 108.161 85.1294 109.598 84.4532 110.695C83.7766 111.792 82.3393 112.133 81.2422 111.457C80.6336 111.081 79.8756 110.618 79.1836 110.047L79.1211 109.995L79.0616 109.939C77.92 108.855 76.7841 107.463 76.3203 105.703L76.1758 105.154L76.2989 104.601C76.4677 103.843 76.6354 103.224 76.752 102.793C76.8132 102.566 76.8518 102.424 76.876 102.323C76.8766 102.32 76.8774 102.317 76.878 102.315C76.9997 101.141 77.9916 100.224 79.1983 100.224ZM107.592 98.7838C108.149 97.622 109.544 97.1319 110.706 97.6891C110.67 97.6719 110.704 97.6894 110.878 97.7506C111.028 97.8035 111.224 97.8688 111.465 97.9469C111.927 98.0967 112.561 98.2968 113.186 98.5045C113.817 98.7147 114.502 98.9537 115.123 99.2037C115.63 99.4078 116.219 99.6669 116.719 99.9791L116.927 100.117L117.101 100.237L117.249 100.386C118.184 101.325 118.624 102.476 118.831 103.442C119.04 104.417 119.032 105.347 119.032 106.014C119.032 107.303 117.987 108.348 116.698 108.348C115.409 108.348 114.364 107.303 114.364 106.014C114.364 105.272 114.356 104.834 114.268 104.42C114.209 104.145 114.127 103.958 114.053 103.833C113.906 103.759 113.686 103.656 113.38 103.533C112.89 103.336 112.311 103.132 111.712 102.933C111.106 102.732 110.542 102.555 110.025 102.387C109.602 102.25 109.04 102.068 108.687 101.898C107.525 101.34 107.035 99.9458 107.592 98.7838ZM127.59 94.6949C130.868 94.6949 134.275 95.4185 136.147 97.9987L136.293 98.1998L136.394 98.4264C137.051 99.9138 137.013 101.528 136.74 102.723C136.586 103.401 136.328 104.06 135.852 104.727C135.41 105.346 134.838 105.89 134.18 106.433C133.185 107.253 131.714 107.111 130.895 106.117C130.075 105.122 130.217 103.651 131.211 102.832C131.738 102.398 131.954 102.154 132.052 102.016C132.115 101.928 132.15 101.86 132.189 101.686C132.241 101.458 132.268 101.192 132.254 100.93C132.246 100.784 132.225 100.655 132.198 100.544C131.601 99.9414 130.241 99.3629 127.59 99.3629C126.301 99.3627 125.256 98.3177 125.256 97.0289C125.256 95.7402 126.301 94.6952 127.59 94.6949ZM43.0196 89.1783C44.1963 89.298 45.1153 90.2913 45.1153 91.4996C45.1151 92.5771 44.3833 93.4813 43.3907 93.7496C43.3257 93.7845 43.2228 93.8432 43.0801 93.9332C42.6825 94.1841 42.092 94.6021 41.3291 95.2174C40.826 95.6233 40.3647 96.7385 40.4688 98.2662C40.5208 98.2865 40.5797 98.3086 40.6455 98.3307C41.1125 98.4873 41.6935 98.5978 42.3008 98.6823C43.4464 98.8416 44.2148 98.8424 45.1241 98.8424C46.4127 98.8427 47.458 99.8877 47.458 101.176C47.4578 102.465 46.4126 103.51 45.1241 103.51C44.175 103.51 43.1387 103.511 41.6573 103.305C40.951 103.207 40.0362 103.049 39.1612 102.755C38.3429 102.481 37.2178 101.979 36.4414 100.978L36.0987 100.537L35.9932 99.9879C35.4746 97.288 35.85 93.6408 38.3994 91.5846C39.2605 90.8902 39.9997 90.3573 40.5899 89.985C40.8814 89.8011 41.1691 89.6359 41.4375 89.5074C41.5707 89.4437 41.733 89.3732 41.9102 89.3141C42.0473 89.2683 42.3738 89.1656 42.7813 89.1656L43.0196 89.1783ZM76.875 102.353C76.8709 102.39 76.8643 102.462 76.8643 102.558C76.8643 102.488 76.87 102.419 76.876 102.351L76.875 102.353ZM98.6924 88.9C99.7465 88.1585 101.202 88.4114 101.943 89.4655C102.119 89.7146 102.236 89.987 102.303 90.2662C102.406 90.4207 102.501 90.6004 102.571 90.8092C102.788 91.4483 102.687 92.0358 102.522 92.4401C102.261 93.0814 101.791 93.407 101.737 93.4459C101.595 93.5506 101.47 93.6171 101.413 93.6461C101.293 93.7078 101.188 93.7476 101.145 93.7643C101.043 93.803 100.94 93.8361 100.865 93.859C99.9047 94.1546 98.5721 94.6239 97.3125 95.0514C96.7039 95.2579 96.1093 95.4556 95.625 95.6012C95.3852 95.6733 95.1416 95.742 94.9219 95.7936C94.795 95.8234 94.3812 95.9243 93.9463 95.9039C91.7156 95.7984 89.8484 95.6394 88.4043 95.3649C87.6806 95.2273 86.9861 95.0466 86.3721 94.7926C85.7745 94.5453 85.094 94.1638 84.5674 93.5348C83.7403 92.5463 83.871 91.0739 84.8594 90.2467C85.8071 89.4538 87.1969 89.5439 88.0391 90.4235C88.0616 90.4355 88.0997 90.4563 88.1573 90.4801C88.3689 90.5676 88.7241 90.6741 89.2754 90.7789C90.3435 90.982 91.8665 91.1254 93.9307 91.2281C94.0149 91.2063 94.131 91.1764 94.2803 91.1315C94.6797 91.0114 95.2075 90.8368 95.8125 90.6315C96.1798 90.5068 96.5768 90.3704 96.9805 90.2321C97.0976 90.059 97.2348 89.8833 97.3985 89.7086C97.3382 89.7125 97.3251 89.7152 97.3985 89.7047C97.4155 89.7012 97.4459 89.6947 97.4805 89.6803C97.6768 89.5983 98.018 89.3746 98.6924 88.9ZM153.01 0.859985C153.823 -0.139359 155.293 -0.289457 156.293 0.524048C157.292 1.33774 157.443 2.80769 156.63 3.80725C154.586 6.31873 152.591 8.75096 145.518 14.9078C143.095 17.0166 140.107 19.5343 137.002 22.1198C139.119 23.5698 141.354 25.2646 143.63 27.1959C149.32 32.0253 152.663 35.0527 154.995 37.5143C155.835 38.4004 156.505 39.365 157.064 40.3629C162.008 39.6001 167.133 37.9479 171.085 36.7369C176.401 35.1079 178.305 33.912 179.712 32.8121C181.214 31.6375 182.227 30.4853 183.403 29.1373C184.251 28.1669 185.725 28.0674 186.696 28.9147C187.667 29.7623 187.767 31.2367 186.92 32.2076C185.747 33.5515 184.477 35.0123 182.587 36.4899C180.601 38.0421 178.133 39.459 172.452 41.1998C169.023 42.2506 164.064 43.8695 158.957 44.775C159.179 45.4078 159.393 46.0458 159.604 46.6705L160.057 47.9996L160.088 48.0875L160.111 48.1783C160.5 49.6646 160.696 51.1919 160.846 52.6129C161.735 53.2475 162.082 54.4425 161.614 55.4752C161.49 55.749 161.104 56.5612 160.193 56.9742C159.637 57.2265 159.003 57.271 158.405 57.0826C157.868 56.9131 157.505 56.6036 157.299 56.3864C156.91 55.9774 156.709 55.512 156.61 55.2594C156.493 54.9564 156.407 54.6438 156.347 54.361L156.318 54.2321L156.306 54.1002C156.135 52.374 155.974 50.8438 155.609 49.4225C155.083 47.9096 154.671 46.6051 154.211 45.3727C152.972 45.4558 151.749 45.4735 150.564 45.4049C144.336 45.0446 139.839 44.5314 136.87 44.0553C135.497 43.8352 134.422 43.6159 133.639 43.4176C134.258 43.9941 134.929 44.6209 135.618 45.2633C136.756 46.3243 137.971 47.4458 139.161 48.5123L140.126 47.5475C140.77 48.1341 142.653 49.8537 144.158 51.3405C144.885 52.0586 145.622 52.8174 146.068 53.3844C146.184 53.5309 146.323 53.7188 146.444 53.9254C146.505 54.029 146.587 54.1789 146.659 54.3619C146.672 54.3946 146.686 54.4356 146.702 54.483C148.459 56.286 150.302 58.1414 152.085 59.8864C154.145 61.9026 156.107 63.7551 157.747 65.2067C158.581 64.9742 159.512 65.2154 160.124 65.9078C160.617 66.4665 161.184 67.1065 161.604 67.653C161.768 67.8676 161.954 68.1285 162.117 68.4049C164.992 69.5259 167.942 70.0603 171.135 70.3932C175.774 70.8769 181.278 69.712 186.391 67.7604C188.007 66.9014 188.565 66.0684 188.814 65.5709C188.949 65.2992 188.997 65.1121 189.02 64.9664C189.047 64.79 189.052 64.6138 189.052 64.2399C189.052 62.9512 190.097 61.9059 191.386 61.9059C192.674 61.9061 193.719 62.9513 193.72 64.2399C193.72 65.0376 193.725 66.1855 192.987 67.6598C192.271 69.0911 190.963 70.6539 188.424 71.9664L188.311 72.025L188.19 72.0709C182.692 74.1863 176.349 75.6299 170.65 75.0358C167.565 74.714 164.516 74.199 161.467 73.1393L161.433 73.2203L160.589 72.818C158.782 72.1261 156.974 71.2315 155.156 70.0602C151.745 67.8616 148.894 66.1064 146.716 64.9293C145.624 64.3391 144.754 63.9237 144.1 63.6705C143.338 63.3758 143.199 63.436 143.403 63.4137C142.122 63.5533 140.97 62.6276 140.83 61.3463C140.691 60.0652 141.616 58.9127 142.897 58.7731C143.432 58.7149 143.983 58.7844 144.503 58.9078C143.96 58.3559 143.422 57.8059 142.894 57.2614C142.221 56.9293 141.513 56.4639 140.839 55.9742C140.347 55.6168 139.828 55.212 139.293 54.7789C138.999 55.068 138.65 55.2677 138.296 55.3766C137.787 55.5332 137.345 55.4918 137.116 55.4567C136.654 55.3856 136.24 55.2054 135.972 55.0778C135.411 54.8111 134.612 54.2609 133.811 53.6823C133.065 53.1442 132.167 52.4658 131.164 51.6969C131.35 52.031 131.423 52.3428 131.453 52.5377L131.517 52.9518L131.433 53.3619C131.339 53.8172 131.154 54.3775 130.987 54.8756C130.801 55.431 130.59 56.0411 130.359 56.7614C130.323 56.8749 130.289 56.9913 130.252 57.109C130.316 57.2439 130.363 57.3681 130.396 57.4723C130.579 58.0671 130.53 58.631 130.488 58.9401C130.438 59.3129 130.343 59.6887 130.225 60.0406C130.021 60.6488 129.724 61.3435 129.427 61.9049C129.284 62.1738 129.095 62.5016 128.871 62.7887C128.768 62.9209 128.573 63.1554 128.292 63.3668C128.123 63.4939 127.403 64.0103 126.405 63.8405C126.227 64.1077 126.048 64.3749 125.87 64.6315C124.407 66.748 122.474 69.1868 119.654 71.0338C119.592 71.0749 119.48 71.143 119.334 71.2096C119.214 71.264 118.912 71.3924 118.5 71.4166C118.488 71.4173 118.476 71.4162 118.464 71.4166C117.873 71.8921 117.271 72.3699 116.68 72.8356C115.234 73.9747 113.865 75.0479 112.777 75.986C111.801 76.8277 110.327 76.7196 109.485 75.7438C109.439 75.6897 109.395 75.6337 109.355 75.5768C109.335 75.611 109.316 75.6459 109.295 75.6793C109.228 75.786 109.092 75.9878 108.874 76.1901C108.683 76.3676 108.183 76.7756 107.403 76.8258C106.491 76.8846 105.83 76.4259 105.482 76.0358C105.183 75.6996 105.051 75.3592 104.999 75.2115C104.888 74.8961 104.857 74.6041 104.845 74.4703C104.828 74.2977 104.821 74.1194 104.819 73.9508C104.816 73.6864 104.81 73.4227 104.807 73.1608C104.777 73.243 104.749 73.3206 104.72 73.3893C104.7 73.4353 104.573 73.7487 104.322 74.0494C104.283 74.0963 104.033 74.4128 103.572 74.6471C103.836 74.9122 104.04 75.2448 104.154 75.6285C104.521 76.864 103.816 78.1631 102.581 78.5299C102.251 78.6277 101.927 78.7216 101.611 78.8151C101.603 78.8572 101.595 78.9004 101.585 78.943C101.428 79.5848 101.052 79.9807 100.845 80.1637C100.459 80.5049 100.047 80.6443 99.9219 80.6862C99.729 80.7508 99.5381 80.7944 99.375 80.8258C98.7533 80.9456 97.7687 81.0286 96.2901 81.0699C95.2065 81.1002 94.1272 81.1351 93.0733 81.1686C92.7656 81.2326 92.5177 81.2784 92.3203 81.3102C92.1647 81.3352 92.0381 81.3503 91.9375 81.3619C91.9129 81.3653 91.8876 81.3688 91.8623 81.3717L91.8604 81.3727C91.856 81.3731 91.851 81.3733 91.8467 81.3737C91.7523 81.3839 91.6532 81.3912 91.5537 81.3912H91.5078C91.4987 81.3911 91.4737 81.3898 91.4424 81.3883C91.4267 81.3876 91.396 81.3865 91.3584 81.3834C91.3353 81.3815 91.2415 81.3739 91.1241 81.3522C91.0544 81.3382 90.8651 81.2883 90.7471 81.2487C90.7423 81.2466 90.7376 81.2433 90.7325 81.2408C88.7354 81.3029 86.8961 81.3543 85.3731 81.3658C83.9512 81.3766 82.6863 81.3553 81.7784 81.2594C81.3729 81.2165 80.8019 81.1384 80.2979 80.9332C80.0829 80.8457 79.5191 80.596 79.0977 80.0035C77.7146 79.9433 76.1815 79.8547 74.5078 79.7252C73.2228 79.6258 72.261 78.5035 72.3604 77.2184C72.4335 76.2743 73.0592 75.5069 73.8955 75.2047C73.5963 74.905 73.4523 74.6004 73.3994 74.483C73.32 74.3065 73.274 74.1506 73.2491 74.0553C73.2297 73.9815 73.2164 73.9082 73.2032 73.8395C73.1357 74.1407 73.0634 74.4364 72.9834 74.6598C72.9639 74.7144 72.8654 75.0005 72.6621 75.2916C72.6042 75.3747 72.2432 75.912 71.5088 76.1705C71.0532 76.3309 70.4905 76.3683 69.9258 76.1617C69.8722 76.1421 69.8211 76.1195 69.7715 76.0973C69.7566 76.1575 69.7426 76.2179 69.7266 76.276C69.66 76.518 69.5014 77.0709 69.1621 77.5377C69.0617 77.6759 68.8666 77.918 68.5567 78.1334C68.3355 78.2871 67.9931 78.4634 67.5586 78.5328C67.2605 78.6197 66.94 78.6497 66.6123 78.608C65.7687 78.5006 65.1392 78.3699 64.2705 77.984C63.5343 77.6569 62.6231 77.1509 61.8106 76.5846L61.6651 76.484L61.5362 76.361C61.4731 76.301 61.4115 76.2368 61.3467 76.1735C60.7481 76.0737 60.2758 75.7782 60.0039 75.5533C59.5642 75.1896 59.253 74.7297 59.0391 74.3698C58.7962 73.9609 58.6779 73.5277 58.6084 73.2174C58.6023 73.1899 58.5968 73.1617 58.5909 73.1334C57.8747 72.2747 57.1527 71.3683 56.4795 70.484C56.4202 70.4723 56.3643 70.4597 56.3135 70.4459C55.6522 70.2658 55.2328 69.8515 55.1182 69.7379C54.9281 69.5496 54.7727 69.3495 54.6534 69.1735C54.2399 68.5634 53.9596 67.822 53.7285 67.1442C53.5999 66.7667 53.4594 66.3248 53.3057 65.8326C53.2227 65.6814 53.1466 65.5373 53.0801 65.401C52.9676 65.1704 52.8432 64.8904 52.7549 64.5953C52.7212 64.4827 52.6068 64.1065 52.625 63.6207C52.5929 63.5101 52.561 63.3983 52.5293 63.2858C51.8402 63.0028 51.3932 62.5054 51.1514 62.1725C50.8277 61.7266 50.6028 61.216 50.4727 60.7115C49.9647 58.7413 49.5384 54.8851 49.9707 50.2135C48.4299 52.0965 46.9165 53.5817 45.626 54.692C44.6161 55.5609 43.7333 56.211 43.0674 56.649C42.7384 56.8655 42.4403 57.0438 42.1924 57.1754C42.0763 57.2371 41.9244 57.3142 41.7617 57.3785C41.69 57.4069 41.5372 57.4644 41.3448 57.5065C41.2522 57.5267 41.0656 57.5629 40.8301 57.5631C40.6578 57.5632 40.0793 57.551 39.4951 57.149C39.3735 57.0654 39.2533 56.9807 39.1358 56.8951C37.897 58.0758 36.5561 59.3863 35.0625 60.8795C35.0913 60.9138 35.1206 60.9462 35.1475 60.9791C35.4792 61.3849 35.8307 61.8742 36.1631 62.4049C36.797 63.417 37.5067 64.81 37.751 66.2086C38.2716 69.191 38.1572 73.1155 37.9219 75.5944C38.2722 75.6539 38.6471 75.7208 39.0479 75.7867C42.2708 76.317 46.9812 77.0321 53.2344 78.0094C54.5977 78.2225 55.7558 78.5263 56.5274 78.9088C56.7275 79.008 56.9984 79.1597 57.2578 79.3795C57.4311 79.5263 58.0537 80.0728 58.1641 81.0309C58.2567 81.8359 57.964 82.4445 57.6114 82.861C61.3193 84.4556 64.8833 85.8911 67.8594 86.9342L68.9619 87.3121L69.0586 87.3444L69.1524 87.3844C71.9246 88.5864 73.3963 89.9492 74.7149 91.1666C75.6616 92.041 75.7209 93.5185 74.8467 94.4655C73.9724 95.4123 72.4949 95.4704 71.5479 94.5963C70.3349 93.4764 69.3434 92.5664 67.3623 91.6969C61.3738 89.6887 52.8635 85.9773 45.5674 82.5524L45.8867 81.5914C42.8027 81.113 40.2664 80.7183 38.2901 80.3932C37.3044 80.231 36.4429 80.0817 35.7119 79.9479C35.5601 80.1536 35.3541 80.3809 35.0752 80.5778C34.518 80.971 33.8041 81.1493 33.0733 81.0006C32.492 80.8822 32.0862 80.5905 31.9219 80.4664C31.7359 80.3259 31.5697 80.1698 31.4981 80.1031C31.4502 80.0586 31.4114 80.0245 31.3819 79.9977C30.9281 79.8469 30.5108 79.7227 30.0899 79.6676C29.5878 79.6019 29.2836 79.665 29.0821 79.774C29.1779 79.7221 29.06 79.7691 28.625 80.3356C28.3344 80.714 27.731 81.5648 27.2246 82.1871C26.1199 83.5447 24.3003 85.3865 21.4639 85.525C20.9391 85.5506 20.1059 85.5568 19.2959 85.3571C18.5791 85.1802 17.0711 84.6234 16.6162 82.9293C16.2314 81.4959 16.2447 79.5639 16.6621 77.5485C17.0893 75.4864 17.9727 73.1668 19.502 70.9498C20.5493 69.4316 21.7498 68.1715 22.6778 67.2789C22.7819 66.9571 22.9555 66.6519 23.2041 66.3903C28.7438 60.5616 32.7141 56.5654 35.9903 53.4459C35.7442 52.9639 35.5567 52.4602 35.4375 51.9332C34.9537 49.7934 35.7036 47.8597 36.8545 46.3082C37.9863 44.7826 39.6381 43.4286 41.4483 42.2389C43.2815 41.0341 45.4059 39.9138 47.6035 38.8951C51.9983 36.858 56.8527 35.1484 60.6104 33.9274C62.4952 33.3149 64.1193 32.8209 65.2813 32.4684C65.5253 32.3944 65.7458 32.3254 65.9434 32.2653C65.9994 32.2203 66.0552 32.1747 66.1114 32.1295C63.1368 31.1797 59.6917 29.9471 56.3623 28.3326C55.8969 28.107 55.448 27.852 55.0137 27.5758C52.2752 29.014 49.544 30.4631 47.0811 31.8326C48.2748 32.0401 49.123 33.136 49.001 34.361C48.8729 35.643 47.7304 36.5792 46.4483 36.4518C44.5953 36.2673 42.7233 36.0793 40.6563 35.819C38.9243 36.9908 37.4933 38.0394 36.3526 38.9723C35.3596 39.7844 34.6251 40.4754 34.1133 41.0514C34.1789 41.2668 34.2158 41.4952 34.2159 41.7321C34.2158 43.0208 33.1706 44.0659 31.8819 44.066C31.8099 44.066 31.2848 44.0837 30.7715 43.9381C30.0662 43.738 29.1966 43.183 28.876 42.0631L28.6739 41.3561L28.9131 40.6617C29.2442 39.6991 29.8727 38.8039 30.5899 37.9908C31.3267 37.1556 32.2735 36.2782 33.3975 35.359C33.6174 35.1792 33.8465 34.9977 34.083 34.8121C29.4053 33.9713 23.6807 32.6898 19.958 31.3932C15.948 29.9964 14.26 28.5644 13.0869 27.191C12.016 25.9371 11.5332 24.9324 11.1241 24.0846C10.564 22.9241 11.0508 21.5289 12.211 20.9684C13.3717 20.4082 14.7669 20.8947 15.3272 22.0553C15.6957 22.8188 15.9685 23.3786 16.6358 24.1598C17.2011 24.8218 18.1556 25.8234 21.4932 26.986C24.9885 28.2034 30.693 29.4813 35.378 30.3053C36.8752 30.5686 38.2465 30.7791 39.5332 30.9596C40.5305 30.3079 41.5981 29.6303 42.7354 28.9274L42.7686 28.9078L42.8008 28.8893C45.335 27.4351 48.2702 25.8562 51.2471 24.2838C49.6178 22.4378 48.2933 20.3473 47.2119 18.4323C45.0258 14.5607 43.9297 10.4668 43.376 7.91858C42.8028 5.28016 42.7901 4.15324 42.7901 3.02502C42.7901 1.7361 43.8351 0.69104 45.1241 0.69104C46.4128 0.69129 47.458 1.73625 47.458 3.02502C47.458 3.87056 47.4451 4.66063 47.9375 6.92737C48.4499 9.28533 49.4242 12.8572 51.2764 16.1373C52.5496 18.3921 53.9561 20.4683 55.5362 22.0309C56.6567 21.445 57.7587 20.8697 58.8213 20.3121C59.9626 19.7134 61.3738 20.1533 61.9727 21.2946C62.5709 22.4356 62.1311 23.8461 60.9903 24.4449C60.693 24.6009 60.3925 24.7567 60.0909 24.9147C65.9237 27.4957 71.5341 28.7899 74.6563 29.8444C75.877 30.257 76.5333 31.5815 76.1211 32.8024C75.7087 34.0231 74.384 34.679 73.1631 34.2672C72.7225 34.1184 72.1728 33.9515 71.5342 33.7623C71.234 34.0028 70.9358 34.2426 70.6397 34.4801C70.5734 34.6932 70.4971 34.8396 70.4698 34.8912C70.348 35.121 70.2093 35.2907 70.167 35.3424C70.0473 35.4891 69.9077 35.6346 69.7969 35.7467C69.3344 36.2147 68.4859 36.9895 67.5381 37.8239C65.6608 39.4765 63.0386 41.6763 61.6973 42.568L61.6543 42.5963L61.6104 42.6227C61.3022 42.8085 60.971 42.9987 60.6709 43.15C60.5236 43.2243 60.3474 43.307 60.1651 43.3776C60.1624 43.3786 60.1594 43.3793 60.1563 43.3805C60.1671 43.4467 60.1772 43.5059 60.1846 43.5494C60.2251 43.7883 60.2641 44.0344 60.3028 44.2867C60.4032 44.3067 60.505 44.3326 60.6075 44.3668C61.115 44.5362 61.4796 44.8359 61.7207 45.1129C62.1454 45.601 62.2991 46.1448 62.3604 46.3893C62.4989 46.9422 62.5376 47.6091 62.5576 48.1744C62.5796 48.7907 62.5834 49.5407 62.5889 50.3502C62.5945 51.1743 62.6022 52.0958 62.6289 53.108C62.6563 54.1458 62.6764 55.3197 62.6934 56.5553C62.8848 56.536 63.0796 56.5292 63.2764 56.5377C63.4097 56.3995 63.5796 56.2568 63.792 56.1334C64.5537 55.6911 65.4114 55.745 66.0576 56.0787C66.5467 56.3313 66.8154 56.6867 66.9053 56.8112C67.0225 56.9734 67.0995 57.1214 67.1416 57.2076C67.2845 57.5002 67.3923 57.8554 67.4639 58.0963C67.633 58.6655 67.786 59.3007 67.9287 59.9869C67.9765 59.9293 68.0281 59.8718 68.084 59.816C68.3745 59.5264 68.9862 59.0758 69.877 59.111C70.1689 59.1225 70.4255 59.184 70.6465 59.2701C70.6799 58.9109 70.7074 58.5784 70.7276 58.2789C70.7473 57.9854 70.7933 57.6373 70.8955 57.2906C70.9556 57.0873 71.1907 56.2896 71.9668 55.7604C72.4632 55.422 73.1235 55.2404 73.8262 55.3776C74.4501 55.4994 74.874 55.827 75.1035 56.0465C75.4171 56.3464 75.6267 56.6943 75.7666 56.9742C75.8653 56.8044 76.0122 56.5987 76.2207 56.4059C76.4651 56.1801 76.9079 55.8698 77.544 55.7936C78.2137 55.7134 78.7711 55.9306 79.1407 56.1793C79.7295 56.5757 79.9614 57.1222 79.9981 57.2037C80.081 57.3879 80.1292 57.5534 80.1553 57.65C80.1562 57.6534 80.1564 57.6574 80.1573 57.6608C80.2722 57.4948 80.5305 57.1584 80.9737 56.903C81.5801 56.5536 82.4472 56.4215 83.2725 56.8483C83.9051 57.1754 84.2042 57.682 84.3067 57.8707C84.3401 57.9324 84.3694 57.9933 84.3955 58.0514C84.4143 58.0518 84.4332 58.0506 84.4522 58.0514C85.6328 58.0983 86.3022 58.9 86.543 59.2399C86.8366 59.6544 87.0314 60.1277 87.1729 60.5621C87.253 60.808 87.327 61.0607 87.3994 61.318C87.5295 61.0525 87.6861 60.777 87.8741 60.527C88.0271 60.3235 88.6861 59.4563 89.8926 59.3951C90.654 59.3566 91.2126 59.6375 91.6006 59.9615C91.6617 59.7415 91.7222 59.5347 91.7813 59.3444C91.919 58.9008 92.1525 58.2837 92.5909 57.775C92.8204 57.5087 93.2413 57.1148 93.8897 56.9274C94.6254 56.7147 95.3492 56.8557 95.9112 57.192C96.0128 57.2529 96.1052 57.3191 96.1905 57.3864C96.2222 57.3255 96.2587 57.261 96.2989 57.1949C96.3695 57.0789 96.543 56.8069 96.8389 56.5533L96.9815 56.4391C97.3557 56.1608 98.0085 55.8255 98.8633 55.9479C99.3152 56.0126 99.6743 56.1859 99.9522 56.3834C99.9727 56.3572 99.9938 56.3305 100.016 56.3043C100.16 56.132 100.488 55.7687 101.022 55.5377C101.984 55.1221 103.293 55.0153 104.411 55.9098C104.564 56.0325 104.701 56.1653 104.822 56.3033C105.057 56.07 105.488 55.7413 106.131 55.6442C106.928 55.5236 107.56 55.8303 107.925 56.1139C108.251 56.3676 108.432 56.6461 108.511 56.778C108.672 57.0485 108.745 57.2968 108.77 57.3815C108.805 57.5013 108.829 57.6114 108.846 57.694C108.875 57.841 108.899 58.0095 108.921 58.1881C108.975 58.0318 109.028 57.8831 109.082 57.7457C109.195 57.4581 109.373 57.044 109.632 56.6813C109.749 56.5177 110.029 56.1507 110.51 55.8815C110.882 55.673 111.369 55.5357 111.891 55.5729C112.249 53.5181 112.608 51.45 112.891 49.985C112.893 49.9734 112.894 49.9614 112.897 49.9498C112.711 49.9329 112.525 49.9158 112.339 49.899C112.337 50.4849 112.127 50.968 111.93 51.2799C111.679 51.6772 111.365 51.9514 111.148 52.1188C110.677 52.4832 110.175 52.5961 110.029 52.6295C109.81 52.6799 109.584 52.7118 109.41 52.734C109.228 52.7573 109.01 52.7821 108.799 52.8063C108.578 52.8316 108.334 52.86 108.06 52.8961C106.976 53.0388 105.353 53.306 103.077 53.9362C101.208 54.4538 98.8848 55.1257 96.8213 55.5035C95.7856 55.6932 94.7154 55.8287 93.7295 55.8151C92.8022 55.8022 91.6168 55.6574 90.6172 54.9869C90.2441 54.7366 89.8847 54.4114 89.5498 54.0172C89.2059 54.1956 88.7631 54.3245 88.2315 54.2701C87.393 54.1843 86.8883 53.6971 86.6992 53.486C86.3406 53.0852 86.1954 52.6428 86.1641 52.5524C85.9737 52.0017 85.83 51.0844 85.6905 50.0035C85.3827 47.62 84.8008 40.8265 84.8008 34.8199C84.8009 34.2283 85.0228 33.6893 85.3858 33.278C83.9916 33.2673 82.4967 33.2594 80.9112 33.2594C79.6222 33.2594 78.5772 32.2143 78.5772 30.9254C78.5777 29.6369 79.6225 28.5924 80.9112 28.5924C82.3964 28.5924 83.8048 28.5989 85.128 28.608C85.2064 28.5756 85.2719 28.5513 85.3194 28.5358C85.4907 28.4797 85.6464 28.4473 85.7598 28.4274C85.9865 28.3875 86.2199 28.3673 86.4258 28.3561C86.8472 28.3332 87.3892 28.3342 88.0362 28.3512C88.3756 28.3601 88.6374 28.4454 88.6553 28.4508C88.7353 28.475 88.7979 28.4987 88.8282 28.5104C88.892 28.535 88.945 28.5589 88.9698 28.5699C89.0251 28.5947 89.0829 28.6214 89.126 28.6422C89.1333 28.6457 89.1406 28.6501 89.1485 28.6539C90.7136 28.6784 92.0976 28.7066 93.2774 28.7428C94.7513 28.7881 95.9308 28.8411 96.7559 28.901C97.1595 28.9303 97.5261 28.9648 97.8145 29.0074C97.9441 29.0266 98.1479 29.0597 98.3565 29.1207C98.4456 29.1468 98.6685 29.2149 98.916 29.3561C99.0403 29.427 99.2691 29.5715 99.4951 29.818C99.6978 30.0391 99.974 30.4299 100.075 30.9811L100.107 31.2272L100.116 31.4537C102.036 31.8115 103.949 32.1724 105.685 32.5182C107.304 32.8409 108.795 33.1549 110.014 33.4449C111.17 33.7203 112.262 34.0147 112.964 34.3209L114.103 34.817C114.88 34.1918 116.142 33.1751 118.147 31.5475C120.821 29.378 124.8 26.1406 128.988 22.693C127.474 21.8957 126.17 21.3282 125.124 20.9781C123.952 20.5856 123.35 20.5499 123.194 20.568C121.914 20.7179 120.755 19.802 120.605 18.5221C120.454 17.242 121.371 16.0824 122.651 15.9323C123.861 15.7906 125.268 16.1036 126.605 16.5514C128.019 17.0245 129.65 17.7511 131.421 18.6979C131.888 18.9474 132.366 19.215 132.855 19.4977C136.35 16.5974 139.758 13.7321 142.453 11.3864C149.328 5.40255 151.136 3.16183 153.01 0.859985ZM151.515 70.1022C152.094 69.8875 152.885 69.7069 153.752 69.8815C154.645 70.0617 155.376 70.5698 155.884 71.275L155.982 71.4186L156.103 71.6237C156.36 72.1173 156.452 72.7105 156.309 73.3073C156.179 73.8455 155.898 74.2093 155.761 74.3717C155.618 74.5405 155.453 74.6929 155.29 74.8287C155.228 74.8978 155.162 74.9652 155.091 75.028C153.787 76.1717 152.378 77.1539 151.193 77.8844C151.264 78.0765 151.315 78.2815 151.341 78.4977C151.43 79.244 151.194 79.8636 151.028 80.2145C150.764 80.7736 150.35 81.0799 150.252 81.153C150.088 81.2753 149.93 81.3661 149.824 81.4235C149.607 81.5411 149.355 81.6531 149.118 81.7535C148.634 81.9592 147.938 82.2298 147.077 82.5651C145.326 83.2466 142.694 84.2725 139.051 85.8199C134.398 87.7962 127.996 90.7014 121.554 93.6246C120.38 94.1572 118.997 93.6371 118.464 92.4635C117.931 91.2899 118.451 89.9064 119.624 89.3737C123.514 87.6084 127.42 85.8364 130.943 84.2682C130.988 84.0913 131.041 83.9581 131.073 83.8864C131.208 83.585 131.376 83.3842 131.436 83.3151C131.574 83.1544 131.705 83.0469 131.74 83.0182C131.838 82.9381 131.931 82.8759 131.972 82.8483C132.28 82.6413 133.088 82.1687 134.702 81.2623C137.224 79.8465 141.837 77.3084 145.579 75.2115C146.182 74.4643 147.305 73.1586 148.537 72.0563C149.335 71.343 150.39 70.5192 151.515 70.1022ZM149.374 84.3268C150.008 84.3268 150.726 84.5006 151.357 84.6949C151.877 84.8549 152.465 85.069 153.104 85.3375L153.759 85.6237L153.867 85.6735L153.97 85.733C154.48 86.0303 154.87 86.3399 155.172 86.5924C155.512 86.8767 155.634 86.9911 155.833 87.1383C156.192 87.4036 156.68 87.6564 157.426 88.0319C158.577 88.6115 159.04 90.0154 158.46 91.1666C157.88 92.3175 156.477 92.7813 155.326 92.2018C154.672 91.8722 153.8 91.4401 153.06 90.8932C152.709 90.6344 152.352 90.3188 152.177 90.1725C152 90.0248 151.86 89.9166 151.712 89.8229C151.014 89.5112 150.43 89.2927 149.985 89.1559C149.454 88.9925 149.284 88.9948 149.374 88.9948C148.085 88.9948 147.04 87.9497 147.04 86.6608C147.04 85.3719 148.085 84.3268 149.374 84.3268ZM160.513 76.0387C160.634 76.0464 160.789 76.0631 160.959 76.0983C161.29 76.1668 161.589 76.2837 161.861 76.4196C162.361 76.6684 162.948 77.0709 163.709 77.6559C165.267 78.8538 168.032 81.2 170.469 83.6227C171.383 84.5314 171.387 86.0094 170.479 86.9235C169.57 87.8375 168.092 87.842 167.178 86.9332C164.887 84.656 162.273 82.439 160.864 81.3561C160.518 81.09 160.264 80.9075 160.079 80.7828C160.005 80.733 159.946 80.6955 159.9 80.6676C158.785 80.492 157.932 79.5302 157.932 78.3658C157.932 77.0772 158.977 76.032 160.266 76.0319L160.513 76.0387ZM31.7598 64.2262C30.4829 65.5359 29.1045 66.9667 27.6035 68.5397C27.4977 68.9849 27.2623 69.4038 26.8965 69.733C26.058 70.4874 24.5509 71.8518 23.3448 73.6002C22.1995 75.2605 21.5441 76.9902 21.2325 78.4948C21.0328 79.4586 20.9853 80.2697 21.0117 80.8698C21.0858 80.869 21.1612 80.8666 21.2364 80.8629C21.9924 80.826 22.6919 80.3611 23.6035 79.2408C24.1052 78.6243 24.385 78.1932 24.9229 77.4928C25.3161 76.9807 25.9726 76.1503 26.8604 75.6696C28.2202 74.9334 29.6143 74.898 30.6963 75.0397C31.1096 75.0938 31.5068 75.1786 31.8682 75.2721C32.2771 74.8926 32.7908 74.6869 33.3145 74.6569C33.493 72.4382 33.5474 69.2691 33.1534 67.0114C33.0608 66.4815 32.7121 65.6888 32.2071 64.8824C32.0551 64.6398 31.9018 64.4183 31.7598 64.2262ZM160.225 80.6979L160.266 80.6998C160.251 80.6998 160.237 80.6972 160.223 80.6969L160.225 80.6979ZM94.0762 70.4781C93.7254 72.1447 93.3694 73.7388 93.0528 74.6891C92.9729 74.9287 92.8646 75.2241 92.7217 75.4987C92.6524 75.6319 92.5308 75.8465 92.3448 76.0651C92.2626 76.1616 92.0853 76.3545 91.8106 76.5367C91.8381 76.5359 91.866 76.5357 91.8936 76.5348C92.3819 76.3745 93.0529 76.1616 93.8233 75.983C94.3778 75.8546 95.012 75.7388 95.6983 75.6725C97.0892 75.28 98.808 74.7775 100.828 74.1793C100.719 74.0658 100.629 73.9554 100.561 73.8561C100.456 73.936 100.34 74.0165 100.206 74.0846C99.7611 74.3112 99.1687 74.4283 98.5391 74.2594C97.9647 74.1052 97.5961 73.7762 97.4053 73.5641C97.0662 73.187 96.9432 72.7961 96.918 72.7194C96.798 72.3537 96.7872 71.9845 96.7862 71.9645C96.772 71.7079 96.7712 71.3406 96.7793 70.8776C96.7864 70.4762 96.7929 70.0713 96.7998 69.6656C96.4632 69.871 95.9794 70.0599 95.3604 70.0055C94.9003 69.965 94.5364 69.8105 94.253 69.6188C94.193 69.9082 94.1357 70.1957 94.0762 70.4781ZM80.2012 73.525C79.956 73.6686 79.5643 73.8395 79.0576 73.8483C78.6697 73.8549 78.3119 73.7634 78.002 73.6139C77.9653 73.7883 77.9221 73.9753 77.8662 74.1471C77.8395 74.2295 77.7304 74.5751 77.4805 74.9176C77.4348 74.9801 77.3448 75.097 77.2071 75.2301C78.2545 75.2933 79.2235 75.3415 80.1123 75.3737C80.087 75.2139 80.0833 75.0907 80.0821 75.0387C80.0798 74.9424 80.0834 74.8607 80.086 74.8121C80.094 74.6628 80.1183 74.4424 80.1319 74.3102C80.1509 74.1245 80.1747 73.8685 80.2012 73.525ZM119.068 58.5162C119.032 58.6071 118.883 58.9844 118.522 59.3365C118.317 59.5353 117.961 59.808 117.441 59.9342C116.882 60.07 116.343 59.9845 115.91 59.7848C115.902 59.7808 115.893 59.7761 115.885 59.7721C115.715 60.6975 115.551 61.5667 115.396 62.3112C115.198 63.2607 114.965 64.2879 114.704 64.8883C114.676 64.9529 114.551 65.2543 114.339 65.5338C114.274 65.6189 114.143 65.7817 113.942 65.9459C113.768 66.0885 113.319 66.4169 112.64 66.4713C112.285 66.4997 111.959 66.4467 111.67 66.3434C111.564 66.8223 111.458 67.3053 111.353 67.7858C111.039 69.2146 110.729 70.6344 110.452 71.8414C111.484 70.9839 112.656 70.0637 113.79 69.1696C115.226 68.0376 116.612 66.9386 117.729 65.9537L117.841 65.86C117.897 65.8162 117.97 65.7628 118.056 65.7096C118.131 65.6625 118.334 65.5401 118.621 65.4537C118.76 65.4118 118.987 65.3601 119.271 65.3571C120.278 64.3621 121.143 63.2485 121.94 62.1041C121.219 61.9368 120.754 61.481 120.597 61.3141C120.093 60.7785 119.749 60.0001 119.502 59.3932C119.386 59.1082 119.256 58.7616 119.116 58.3776C119.102 58.4216 119.087 58.469 119.068 58.5162ZM2.33401 38.7067C3.62283 38.7067 4.66782 39.7519 4.668 41.0406C4.668 41.3298 4.67573 41.3257 4.68558 41.3561C4.70813 41.4266 4.80926 41.6913 5.23538 42.2614C6.10111 43.4192 7.8344 45.2383 9.43948 46.5065C16.1101 49.3594 20.8828 49.603 24.044 48.3649C25.244 47.8948 26.5981 48.4873 27.0684 49.6871C27.5384 50.8872 26.9472 52.2414 25.7471 52.7115C20.8685 54.6226 14.602 53.8434 7.31155 50.6735L7.05081 50.5602L6.82523 50.3883C4.81334 48.8521 2.65684 46.6074 1.4971 45.0563C0.891391 44.2461 0.475811 43.515 0.240265 42.7789C-0.00781957 42.0033 3.05176e-05 41.3772 3.05176e-05 41.0406C0.000213984 39.752 1.04531 38.7068 2.33401 38.7067ZM89.958 34.2848C90.1546 34.4218 90.291 34.5591 90.3662 34.6432C90.7087 35.0262 90.834 35.434 90.8428 35.4606C90.8834 35.5793 90.9081 35.6806 90.92 35.733C90.9624 35.9201 90.9885 36.1286 91.0039 36.2565C91.0758 36.8513 91.1739 38.0428 91.2862 39.4166C91.5181 42.2541 91.8255 46.0628 92.1504 48.3824C92.2896 49.376 92.5507 50.0708 92.792 50.5182C92.9752 50.8577 93.1307 51.0254 93.1924 51.0856C93.2515 51.101 93.4303 51.143 93.794 51.1481C94.3472 51.1557 95.0817 51.0773 95.9805 50.9127C97.1301 50.7022 98.386 50.3805 99.6573 50.0358C99.571 49.9685 99.4865 49.8995 99.4073 49.8278C99.1325 49.5788 98.0487 48.5324 98.4912 46.9879C98.6984 46.2654 99.1617 45.8139 99.4981 45.569C99.8306 45.3268 100.169 45.1882 100.415 45.1051C101.295 44.8077 102.507 44.7419 103.585 44.7291C104.768 44.7151 106.175 44.7685 107.647 44.8561C110.057 44.9993 112.743 45.2413 115.091 45.4664C115.412 45.3369 115.81 45.2587 116.276 45.318C116.682 45.3695 117.008 45.5115 117.266 45.6774C117.485 45.6987 117.697 45.7198 117.903 45.7399C117.883 45.6825 117.867 45.6306 117.854 45.5865C117.777 45.3307 117.724 45.0588 117.698 44.7887C117.646 44.2368 117.501 42.0417 117.396 40.4C117.342 39.5661 117.297 38.8487 117.276 38.5143C117.271 38.433 117.267 38.3669 117.265 38.3278C117.264 38.3183 117.263 38.3032 117.263 38.2887C117.263 38.2847 117.262 38.2771 117.262 38.2672C116.806 38.6342 116.485 38.8941 116.261 39.0719C116.107 39.1941 115.99 39.2861 115.905 39.3512C115.864 39.3828 115.819 39.4166 115.775 39.4479C115.754 39.4632 115.723 39.4863 115.686 39.5114C115.668 39.523 115.568 39.5909 115.437 39.6588C115.412 39.6713 115.166 39.8053 114.825 39.8737C114.701 39.8987 114.142 40.0109 113.494 39.7506C113.112 39.597 112.711 39.3162 112.417 38.8717C112.403 38.8512 112.392 38.8298 112.379 38.8092C112.213 38.852 112.053 38.8856 111.927 38.9088C111.776 38.9366 111.611 38.9637 111.469 38.9869C111.318 39.0116 111.176 39.0342 111.033 39.0602C110.742 39.113 110.5 39.1681 110.303 39.2301C110.23 39.253 110.176 39.2754 110.136 39.2916C110.128 39.3203 110.118 39.3577 110.108 39.4049C110.036 39.7646 110.027 40.243 110.027 41.0406C110.027 42.3295 108.982 43.3746 107.693 43.3746C106.404 43.3746 105.359 42.3295 105.359 41.0406C105.359 40.3648 105.35 39.3904 105.531 38.4879C105.605 38.1221 105.718 37.7226 105.895 37.3229C105.532 37.2485 105.157 37.1729 104.772 37.0963C102.327 36.6092 99.5343 36.092 96.8321 35.5914C96.8283 35.5921 96.8241 35.5937 96.8203 35.5944C95.3366 35.852 93.6459 35.4507 92.3711 35.0533C91.75 34.8597 91.1333 34.6339 90.5518 34.4039C90.35 34.3642 90.1522 34.3236 89.958 34.2848ZM129.625 50.528C129.637 50.5309 129.649 50.5336 129.661 50.5367C129.648 50.5264 129.635 50.5159 129.621 50.5055C129.622 50.513 129.624 50.5205 129.625 50.528ZM44.0117 46.1393C42.4106 47.1916 41.2684 48.1909 40.6026 49.0885C40.522 49.1971 40.4507 49.3009 40.3877 49.4C41.852 48.1025 43.2435 46.9161 44.6885 45.7086C44.457 45.8517 44.2311 45.9951 44.0117 46.1393ZM55.2471 46.3268L55.4121 46.4772L55.4424 46.5094C55.4281 46.0969 55.4164 45.7294 55.4063 45.403C55.3566 45.6915 55.3038 46.0004 55.2471 46.3268ZM133.255 25.2262C128.577 29.0866 124.028 32.7873 121.089 35.1725C120.404 35.7284 119.803 36.2123 119.279 36.6364C120.045 36.4938 120.913 36.5632 121.657 37.0865C121.772 37.3382 121.874 37.6779 121.89 37.7565C121.896 37.7925 121.905 37.8503 121.908 37.8717C121.91 37.8854 121.913 37.9086 121.914 37.9186L121.924 38.026C121.929 38.099 121.942 38.3008 121.965 38.6461C121.988 39.0019 122.145 39.5918 122.465 40.4694C122.558 40.5652 122.639 40.6643 122.709 40.7604C123.485 40.3969 124.432 40.4743 125.149 41.0426C125.606 41.4043 126.062 41.7654 126.516 42.1246C126.557 41.8356 126.662 41.4757 126.908 41.1168C127.384 40.4249 128.085 40.1578 128.617 40.1022C129.074 40.0545 129.434 40.1511 129.595 40.2008C129.783 40.2588 129.934 40.3288 130.03 40.3776C130.222 40.4747 130.387 40.5843 130.5 40.6637C130.567 40.7108 130.635 40.7637 130.705 40.817C130.703 40.7791 130.702 40.74 130.702 40.7008C130.703 39.4122 131.747 38.3669 133.036 38.3668C133.524 38.3668 133.978 38.5176 134.353 38.774C134.432 38.7986 134.533 38.8289 134.657 38.8619C135.246 39.0178 136.215 39.2233 137.609 39.4469C140.386 39.8922 144.721 40.3912 150.833 40.7448C151.103 40.7604 151.377 40.7686 151.652 40.774C151.637 40.7575 151.622 40.7406 151.606 40.7242C149.463 38.4625 146.291 35.5764 140.609 30.7545C138.037 28.5715 135.542 26.7253 133.255 25.2262ZM57.001 40.1031C56.4115 40.3177 55.8158 40.5408 55.2168 40.7692C55.5723 41.1233 55.7122 41.4899 55.7373 41.5524C55.7685 41.6297 55.7929 41.7057 55.8135 41.777C55.8853 41.6745 55.9692 41.5687 56.0703 41.4674C56.2273 41.3102 56.4545 41.1305 56.7461 40.9948C56.7509 40.9377 56.757 40.8843 56.7647 40.8356C56.8144 40.5199 56.9193 40.2666 57.001 40.1031ZM81.4082 11.0983C81.8768 11.0493 82.3906 11.0516 82.9073 11.0787C83.9462 11.1334 85.2622 11.3039 86.7842 11.5524C89.828 12.0494 93.9659 12.904 98.9346 13.9733C101.052 14.3194 102.88 14.4959 104.741 14.652C106.605 14.8082 108.547 14.9474 110.764 15.2242C112.043 15.3841 112.95 16.5508 112.79 17.8297C112.63 19.1083 111.464 20.0156 110.186 19.8561C108.09 19.5943 106.278 19.4648 104.352 19.3033C102.436 19.1428 100.451 18.9531 98.1309 18.5719L98.0742 18.5631L98.0186 18.5514C93.0092 17.4731 88.9575 16.6365 86.0323 16.1588C85.1457 16.0141 84.3864 15.9082 83.752 15.8365C83.7888 16.8109 83.2103 17.7428 82.2481 18.1071C81.0428 18.5633 79.6958 17.9557 79.2393 16.7506C79.0857 16.3449 78.8567 15.7505 78.7198 15.1735C78.5997 14.6673 78.4115 13.6537 78.8701 12.6393L79.1455 12.0289L79.7032 11.6578C80.3248 11.2441 81.0126 11.1396 81.4082 11.0983Z" fill="#FFE479"/>
</svg>
