<svg width="49" height="42" viewBox="0 0 49 42" fill="none" xmlns="http://www.w3.org/2000/svg">
<path d="M41.5344 17.9277C43.2976 16.5239 45.8648 16.815 47.2687 18.5781C48.6726 20.3414 48.3807 22.9086 46.6174 24.3124C42.0456 27.9523 37.9226 30.9194 35.426 32.7812C33.0442 34.5573 31.7398 35.6356 29.8732 36.8808L29.8205 36.9169L29.7668 36.9501C27.67 38.2562 25.9154 39.291 24.5959 40.0117C23.9429 40.3682 23.3466 40.6759 22.843 40.9052C22.5953 41.018 22.31 41.139 22.0178 41.2402C21.8631 41.2938 21.2063 41.5302 20.4055 41.5302C18.1517 41.5301 16.3245 39.7029 16.3244 37.4492C16.3245 35.5251 17.6565 33.9122 19.4484 33.4814C19.4521 33.4797 19.4562 33.4783 19.4601 33.4765C19.7078 33.3638 20.1102 33.1608 20.6838 32.8476C21.8042 32.2357 23.3899 31.3035 25.3781 30.0663C26.9923 28.9871 27.8272 28.2665 30.5471 26.2382C33.1719 24.2809 37.0971 21.4604 41.5344 17.9277ZM14.1301 24.0449C15.6516 22.3822 18.2328 22.2677 19.8957 23.789C21.5585 25.3105 21.6729 27.8917 20.1516 29.5546C19.171 30.6264 19.0282 30.8574 18.9396 30.997C18.8816 31.0884 18.3555 32.0184 17.7775 32.7451L17.6916 32.8525L17.5988 32.954C17.3917 33.1813 17.2234 33.375 17.09 33.537C17.035 33.6039 16.9885 33.6617 16.9504 33.7109C16.428 35.3627 14.8843 36.5605 13.0598 36.5605C10.8059 36.5605 8.97875 34.7333 8.9787 32.4794C8.97874 31.5635 9.2525 30.8322 9.43573 30.4218C9.63672 29.9718 9.87925 29.5802 10.09 29.2714C10.4729 28.7107 10.9483 28.1447 11.4289 27.6103C11.4817 27.5397 11.5382 27.4583 11.6115 27.3398C11.6634 27.2558 11.7119 27.1746 11.7873 27.0488C11.8561 26.9339 11.9463 26.7837 12.0471 26.6249C12.5264 25.8693 13.0574 25.2172 14.1301 24.0449ZM8.49139 2.4765C9.37821 0.40452 11.7768 -0.556555 13.8488 0.330017C15.9208 1.21689 16.8819 3.61543 15.9953 5.68744C15.5881 6.63891 15.1861 7.49918 14.801 8.33099C14.4111 9.173 14.018 10.0312 13.5793 11.0742C12.693 13.1812 11.6366 15.9943 10.7473 18.7958C9.93131 21.6241 9.30155 23.8243 8.84686 25.3603C8.61801 26.1334 8.42221 26.7771 8.26288 27.2656C8.18399 27.5074 8.10269 27.7477 8.02167 27.9628C7.97332 28.0912 7.81997 28.5047 7.5744 28.9111C6.4087 30.8399 3.89987 31.4584 1.97089 30.2929C0.158547 29.1978 -0.497111 26.9175 0.396667 25.0458C0.418497 24.9853 0.45391 24.8851 0.503113 24.7343C0.62597 24.3577 0.795911 23.8032 1.02069 23.0439C1.46914 21.529 2.0935 19.3498 2.92987 16.4511L2.94452 16.3994L2.96112 16.3486C3.92904 13.2967 5.07353 10.2422 6.05487 7.90912C6.55098 6.72968 6.9934 5.76604 7.39374 4.90131C7.79863 4.02674 8.142 3.29279 8.49139 2.4765Z" fill="#FFE479"/>
</svg>
