<svg width="122" height="166" viewBox="0 0 122 166" fill="none" xmlns="http://www.w3.org/2000/svg">
<path d="M46.213 128.863C47.9013 128.526 51.6905 127.735 57.4298 129.151C59.226 129.594 60.5387 130.422 61.5177 131.191C61.9912 131.563 62.4126 131.942 62.7413 132.24C63.0993 132.565 63.3392 132.785 63.5831 132.985C66.2557 135.175 67.1598 137.831 67.4054 140.672C67.409 140.714 67.4101 140.756 67.4132 140.799C67.4543 141.018 67.4827 141.247 67.4943 141.487C67.5866 143.403 67.7949 147.992 63.922 151.513C61.6052 153.62 57.9415 157.273 53.9474 160.148C49.9813 163.003 44.7477 165.817 39.0157 165.403C37.2503 165.276 34.8488 164.858 32.8048 163.341C31.8671 162.644 30.5935 161.726 29.4171 160.653C29.3029 160.711 29.1696 160.777 29.0226 160.837C28.6489 160.989 27.5357 161.397 26.1915 161.055C25.5533 160.893 24.5146 160.492 23.7677 159.477C22.96 158.379 22.9287 157.162 23.1134 156.292C23.4032 154.927 24.3134 153.914 24.6193 153.574C24.8115 153.36 25.0268 153.139 25.2579 152.915C24.7029 149.826 24.3189 146.517 24.6857 143.436C25.1247 139.749 26.7143 135.912 30.754 133.311C33.6318 131.459 37.9807 130.461 41.5665 129.894C42.5966 129.731 43.6361 129.595 44.6564 129.482C45.1198 129.191 45.645 128.977 46.213 128.863ZM51.1613 137.015C50.5105 137.002 49.7226 137.016 48.8429 137.055L49.9796 138.17C50.3694 137.701 50.8661 137.3 51.4513 137.009C51.3552 137.013 51.2584 137.017 51.1613 137.015ZM29.1007 0.00561523C30.3612 -0.0396766 32.2545 0.170119 34.0363 1.36694C35.1967 2.14654 35.9626 3.11177 36.4542 4.05542C46.7411 6.19742 59.2901 9.39659 73.0997 13.4373C73.3658 13.2983 73.7045 13.1298 74.0929 12.9705C74.4552 12.8218 75.5757 12.372 77.0421 12.2556C78.4921 12.1406 82.6863 12.3013 84.796 16.2136C84.9553 16.509 85.0867 16.8034 85.1964 17.0935C88.7631 18.205 92.3892 19.364 96.0597 20.5671C97.2202 19.9106 98.1994 19.4072 99.0284 19.0242C99.4417 18.8333 100.2 18.4957 101.103 18.2273C101.876 17.9972 103.659 17.5332 105.776 17.8728C108.435 18.2993 110.785 19.8677 111.981 22.365C112.697 23.8616 112.816 25.3235 112.779 26.4011C118.084 28.8371 121.168 32.2119 121.167 36.8435C121.166 39.272 120.271 41.5302 119.242 43.4177C118.209 45.3124 116.87 47.1373 115.661 48.7253L115.63 48.7664L115.597 48.8064C104.754 62.3827 91.2492 81.402 78.507 100.919L78.4806 100.961L78.4523 101.001C72.7786 109.27 69.0137 113.753 65.2081 118.283C63.7209 120.053 61.0741 120.446 59.297 119.159C57.5203 117.872 57.2856 115.394 58.7726 113.624C58.9372 113.428 59.1006 113.231 59.2648 113.036C58.9331 113.123 58.5729 113.203 58.1906 113.26C58.1723 113.262 58.1524 113.264 58.132 113.266C57.8315 113.911 57.3552 114.502 56.715 114.965C54.8153 116.338 52.1994 116.069 50.8722 114.365C41.7166 102.607 33.9632 90.9029 27.4493 79.4333C27.0606 78.9481 26.7081 78.3812 26.4318 77.7195C26.3902 77.6198 26.3519 77.5197 26.3156 77.4207C19.2545 64.7357 13.7079 52.3508 9.45911 40.5095C8.48222 40.4813 7.2939 40.3107 6.06848 39.7917C3.53667 38.7193 1.94139 36.6376 1.41614 34.3181C0.984138 32.4102 1.35729 30.7593 1.59875 29.9197C2.04217 28.3782 2.84643 26.8281 3.96887 25.197C3.82103 25.1166 3.67292 25.03 3.52551 24.9373C2.11577 24.0504 0.973391 22.7099 0.396606 21.0115C-0.145426 19.4148 -0.0393988 17.9516 0.171997 16.9421C0.521161 15.2751 1.32312 14.0246 1.77747 13.3933C1.56305 11.6237 1.60276 9.96436 1.98157 8.43726C2.57002 6.06517 3.9549 4.13827 6.01868 2.84937C7.91011 1.66818 10.0221 1.24385 11.8058 1.07983C13.1487 0.956357 14.5388 0.961808 15.8673 1.01733C18.674 -0.33759 21.9777 -0.180804 24.4181 1.4519C24.6562 1.31521 24.8949 1.18343 25.1329 1.0603L25.5714 0.844482C26.2278 0.545257 27.5031 0.0631227 29.1007 0.00561523ZM47.715 79.0125C45.1238 79.4404 42.7882 80.0127 40.9083 80.5417C39.9194 80.8201 39.0918 81.0766 38.3995 81.2966C40.0353 84.0105 41.7441 86.7368 43.5275 89.4734C43.8382 88.7141 44.1813 87.92 44.5021 87.1726C44.9357 86.1622 45.3759 85.1298 45.8195 84.0212C46.572 82.1402 47.1972 80.4772 47.715 79.0125ZM35.8292 60.5955C35.4446 60.787 35.0417 60.9699 34.632 61.1267C34.3908 61.2191 32.701 61.9102 30.5861 61.7888C29.8694 61.7477 28.6197 61.5772 27.3195 60.9343C28.3716 63.0967 29.4698 65.2713 30.6134 67.4578C30.6216 67.4532 30.6282 67.4497 30.6329 67.447L31.3986 67.0154C32.7235 66.276 34.2133 65.4817 35.7999 64.6902C35.433 63.0933 35.5997 61.633 35.8292 60.5955ZM102.221 52.0886C100.155 53.7493 98.0494 55.4579 96.4689 57.5261C94.9861 59.4664 93.6914 62.0683 91.8234 67.238C96.0903 61.2662 100.249 55.6316 104.172 50.5212C103.692 50.9037 103.09 51.3902 102.221 52.0886ZM75.7892 53.8728C71.893 56.6545 67.8603 59.4659 64.1261 61.9255C64.0527 61.9739 63.9778 62.0209 63.9044 62.0691C64.2723 62.4366 64.6218 62.8435 64.9474 63.2927C65.6506 63.4217 66.3371 63.5624 67.005 63.7156C68.2943 62.2218 69.576 60.7513 70.8292 59.3337C72.5444 57.3936 74.2085 55.5723 75.7892 53.8728ZM23.8185 51.2986C23.5672 51.373 23.3164 51.4432 23.0665 51.5027C23.0437 51.5081 23.0163 51.5139 22.9855 51.5212C23.132 51.8582 23.2801 52.1953 23.4288 52.533C23.4315 52.5221 23.434 52.5114 23.4366 52.5007C23.5385 52.0911 23.6718 51.6844 23.8185 51.2986ZM110.723 34.657C110.143 36.0613 109.472 37.4333 108.734 38.7683C109.584 40.2409 109.852 41.918 109.594 43.5496C110.5 42.3303 111.266 41.2238 111.835 40.1794C112.537 38.8923 112.774 38.0005 112.775 37.3835C112.775 36.9576 112.664 35.9337 110.723 34.657ZM83.6407 25.1257C83.3281 25.5371 82.9974 25.9336 82.7062 26.2693C81.5482 27.6039 79.5131 29.7132 77.2765 32.0974C76.1189 33.3314 74.8108 34.7378 73.3644 36.3289C76.6883 33.8979 79.6908 31.6756 82.0206 29.9656C83.9119 28.5775 85.6346 27.346 87.2042 26.2537C86.0097 25.8722 84.8216 25.4965 83.6407 25.1257ZM50.3048 15.5798C50.3282 16.2922 50.2505 16.8178 50.2208 17.0056C50.075 17.9288 49.7831 18.6583 49.6212 19.0251C50.5167 18.9082 52.0993 18.8253 53.8331 19.4343L54.2423 19.5906L54.505 19.7039C56.6757 20.6828 57.9667 22.3756 58.5675 24.0925C60.7461 22.3954 62.7935 20.8086 64.5948 19.4304C59.5995 18.0162 54.8186 16.7304 50.3048 15.5798Z" fill="#FFE479"/>
</svg>
