<svg width="62" height="51" viewBox="0 0 62 51" fill="none" xmlns="http://www.w3.org/2000/svg">
<path d="M19.181 46.0566C20.3079 46.0566 21.2218 46.9709 21.222 48.0977V48.8076C21.2211 48.8076 21.218 48.8076 21.2142 48.8076C21.1403 49.8674 20.2596 50.7041 19.181 50.7041C18.1027 50.7039 17.2217 49.8672 17.1478 48.8076C17.1455 48.8076 17.1423 48.8076 17.14 48.8076V48.0977C17.1402 46.971 18.0544 46.0569 19.181 46.0566ZM6.26208 25.6133C7.00205 25.3196 7.70981 25.5148 8.16248 25.8223C8.52239 26.0668 8.70699 26.3611 8.7699 26.4668C8.90979 26.7019 8.96786 26.9118 8.97888 26.9502C9.00075 27.0265 9.01352 27.0888 9.0199 27.1211C9.03303 27.1876 9.04023 27.2428 9.04333 27.2666C9.05027 27.3199 9.05548 27.3691 9.05798 27.3975C9.06351 27.4603 9.06883 27.5348 9.07361 27.6074C9.09189 27.8853 9.12159 28.4412 9.15662 29.0068C9.23112 30.2101 9.33396 31.5454 9.44568 32.1729C9.48035 32.2212 9.5891 32.3569 9.86755 32.5723C10.3372 32.9354 11.0687 33.3521 12.0873 33.8125C12.2411 33.882 12.3861 33.9395 12.5209 33.9863C12.785 33.9474 13.037 33.9186 13.2611 33.9014C13.5921 33.8759 14.0878 33.8533 14.5267 33.9375C14.6484 33.9609 14.863 34.0101 15.1 34.1211C15.2898 34.21 15.8245 34.4893 16.1302 35.1465C16.5084 35.9599 16.2664 36.7152 16.0072 37.1328C15.7872 37.4869 15.513 37.6952 15.392 37.7812C15.0969 37.9909 14.8053 38.085 14.6693 38.125C14.4957 38.176 14.3236 38.2083 14.1664 38.2295C13.8491 38.2722 13.4941 38.2819 13.1176 38.2549C12.8951 38.2389 12.6578 38.2076 12.4086 38.1631C12.2922 38.1934 12.1874 38.2257 12.1019 38.2578C10.9851 38.6781 10.2577 39.5385 9.81091 40.7129L9.87146 40.7461L10.1566 41.1992C10.596 41.8962 10.8929 42.9024 11.0267 43.9463C11.1674 45.0439 11.1533 46.3725 10.8187 47.7822C10.678 48.3749 10.3633 49.2163 9.55603 49.7402C8.6221 50.3458 7.66336 50.1454 7.11755 49.8926C6.14593 49.4422 5.42728 48.475 5.31189 47.25C5.27183 46.8243 5.04848 45.1102 5.19666 43.0879C4.59125 42.8722 4.01968 42.7024 3.52576 42.5771L2.93298 42.4268L2.52087 41.9756C2.34646 41.7845 2.22046 41.5816 2.12732 41.3887C2.11325 41.389 2.09849 41.3916 2.08435 41.3916C2.07649 41.3916 2.06392 41.3916 2.0531 41.3916C2.04502 41.3916 2.01836 41.3915 1.98865 41.3906C1.97537 41.3903 1.93526 41.3895 1.88611 41.3857C1.86224 41.3839 1.81019 41.3796 1.74548 41.3701C1.7289 41.3678 1.50945 41.3393 1.2572 41.2344C1.18974 41.2063 0.704909 41.017 0.350952 40.4941C0.130916 40.1691 -0.0398918 39.7085 0.00817871 39.1689C0.0536196 38.6601 0.275598 38.2914 0.445679 38.0781C0.739662 37.7097 1.08312 37.547 1.14978 37.5146C1.27181 37.4555 1.3746 37.4207 1.42322 37.4053C1.52378 37.3733 1.60566 37.3562 1.63318 37.3506C1.67004 37.3431 1.70087 37.3378 1.71814 37.335C1.77211 37.3262 1.81966 37.321 1.82556 37.3203C1.83986 37.3187 1.85436 37.3173 1.86267 37.3164C1.88326 37.3142 1.90013 37.3122 1.92419 37.3096C2.01179 37.3001 2.19202 37.2793 2.47009 37.2354C2.39868 37.2467 2.69345 37.2088 3.22888 36.3818C3.71209 35.6354 4.16243 34.5934 4.55408 33.4443C4.80443 32.7095 4.93042 31.5972 4.97205 30.4141C5.01367 29.23 4.96913 28.3154 4.96912 27.7305C4.96912 27.648 4.96881 27.5631 4.97107 27.4922C4.97177 27.4703 4.97515 27.3867 4.98572 27.292C4.98887 27.2638 4.99487 27.2157 5.00525 27.1572C5.0127 27.1154 5.0358 26.9845 5.09216 26.8262C5.11934 26.7499 5.18137 26.5892 5.29822 26.4072C5.39155 26.262 5.6822 25.8438 6.26208 25.6133ZM2.19861 37.3164C2.15092 37.3128 2.11308 37.3118 2.10388 37.3115C2.09691 37.3113 2.09016 37.3107 2.08435 37.3105C2.12251 37.3105 2.16097 37.3143 2.19861 37.3164ZM7.84607 36.2764C7.87211 36.2494 7.89766 36.2211 7.92419 36.1943C7.91251 36.1866 7.90066 36.1787 7.88904 36.1709C7.8747 36.2059 7.86062 36.2414 7.84607 36.2764ZM50.1976 0C52.4515 0 54.2786 1.8272 54.2787 4.08105V13.1572C55.1411 13.046 56.0603 12.9291 57.0521 12.8086C59.2894 12.5371 61.3233 14.1309 61.5951 16.3682C61.8668 18.6054 60.2737 20.6401 58.0365 20.9121C56.7288 21.071 55.478 21.2325 54.2787 21.3877V30.3496C54.2785 32.6034 52.4514 34.4307 50.1976 34.4307C47.944 34.4305 46.1168 32.6033 46.1166 30.3496V22.2334C43.8164 22.3594 41.8516 22.3613 40.7103 22.3613H38.7709C36.517 22.3613 34.6899 20.5341 34.6898 18.2803C34.6898 16.0263 36.5169 14.1992 38.7709 14.1992H40.7103C41.9229 14.1992 43.8837 14.1967 46.1166 14.0586V4.08105C46.1167 1.82728 47.9439 0.000136049 50.1976 0Z" fill="#FFE479"/>
</svg>
